<?xml version="1.0" encoding="utf-8"?>
<!-- Generator: Adobe Illustrator 17.1.0, SVG Export Plug-In . SVG Version: 6.00 Build 0)  -->
<!DOCTYPE svg PUBLIC "-//W3C//DTD SVG 1.1//EN" "http://www.w3.org/Graphics/SVG/1.1/DTD/svg11.dtd">
<svg version="1.1" id="Layer_1" xmlns="http://www.w3.org/2000/svg" xmlns:xlink="http://www.w3.org/1999/xlink" x="0px" y="0px"
	 viewBox="0 0 500 433.7" enable-background="new 0 0 500 433.7" xml:space="preserve">
<pattern  x="1046" y="1821" width="57.6" height="57.6" patternUnits="userSpaceOnUse" id="Capsules" viewBox="4.2 -61.5 57.6 57.6" overflow="visible">
	<g>
		<polygon fill="none" points="4.2,-61.5 61.8,-61.5 61.8,-3.9 4.2,-3.9 		"/>
		<g>
			<line fill="none" stroke="#231F20" stroke-width="1.6" stroke-linecap="round" x1="62.3" y1="-47" x2="66.4" y2="-48"/>
		</g>
		<g>
			<line fill="none" stroke="#231F20" stroke-width="1.6" stroke-linecap="round" x1="30" y1="-29.7" x2="27.8" y2="-26"/>
			<line fill="none" stroke="#231F20" stroke-width="1.6" stroke-linecap="round" x1="27.4" y1="-36.6" x2="29.2" y2="-33.4"/>
			<line fill="none" stroke="#231F20" stroke-width="1.6" stroke-linecap="round" x1="25.9" y1="-34.1" x2="26.2" y2="-29.3"/>
			<line fill="none" stroke="#231F20" stroke-width="1.6" stroke-linecap="round" x1="35" y1="-17.4" x2="35.8" y2="-13.2"/>
			<line fill="none" stroke="#231F20" stroke-width="1.6" stroke-linecap="round" x1="21.7" y1="-22.8" x2="20.9" y2="-18.6"/>
			<line fill="none" stroke="#231F20" stroke-width="1.6" stroke-linecap="round" x1="14" y1="-22.3" x2="17.4" y2="-19.6"/>
			<line fill="none" stroke="#231F20" stroke-width="1.6" stroke-linecap="round" x1="21.7" y1="-28.1" x2="25" y2="-25.4"/>
			<line fill="none" stroke="#231F20" stroke-width="1.6" stroke-linecap="round" x1="25.9" y1="-18.1" x2="24.4" y2="-22.1"/>
			<line fill="none" stroke="#231F20" stroke-width="1.6" stroke-linecap="round" x1="13.6" y1="-19.5" x2="9.4" y2="-15.9"/>
			<line fill="none" stroke="#231F20" stroke-width="1.6" stroke-linecap="round" x1="19.3" y1="-30.2" x2="23.4" y2="-31.4"/>
			<line fill="none" stroke="#231F20" stroke-width="1.6" stroke-linecap="round" x1="28" y1="-10.6" x2="31.4" y2="-13.1"/>
			<line fill="none" stroke="#231F20" stroke-width="1.6" stroke-linecap="round" x1="19.3" y1="-8.7" x2="21.5" y2="-12.4"/>
			<line fill="none" stroke="#231F20" stroke-width="1.6" stroke-linecap="round" x1="37.9" y1="-27.4" x2="39.6" y2="-23.4"/>
			<line fill="none" stroke="#231F20" stroke-width="1.6" stroke-linecap="round" x1="45.9" y1="-36.6" x2="45.4" y2="-30.9"/>
			<line fill="none" stroke="#231F20" stroke-width="1.6" stroke-linecap="round" x1="34.8" y1="-22.6" x2="32.6" y2="-18.9"/>
			<line fill="none" stroke="#231F20" stroke-width="1.6" stroke-linecap="round" x1="43.9" y1="-22.8" x2="40.5" y2="-20.1"/>
			<line fill="none" stroke="#231F20" stroke-width="1.6" stroke-linecap="round" x1="42.8" y1="-9.5" x2="46.1" y2="-6.8"/>
			<line fill="none" stroke="#231F20" stroke-width="1.6" stroke-linecap="round" x1="41.1" y1="-29" x2="44.4" y2="-26.3"/>
			<line fill="none" stroke="#231F20" stroke-width="1.6" stroke-linecap="round" x1="34.3" y1="-26.9" x2="35.8" y2="-30.9"/>
			<line fill="none" stroke="#231F20" stroke-width="1.6" stroke-linecap="round" x1="38.5" y1="-31" x2="42.1" y2="-33.3"/>
			<line fill="none" stroke="#231F20" stroke-width="1.6" stroke-linecap="round" x1="14.2" y1="-13.6" x2="16.7" y2="-17.1"/>
			<line fill="none" stroke="#231F20" stroke-width="1.6" stroke-linecap="round" x1="45.2" y1="-41.1" x2="42.8" y2="-37.6"/>
			<line fill="none" stroke="#231F20" stroke-width="1.6" stroke-linecap="round" x1="18.2" y1="-23.6" x2="16.5" y2="-28.9"/>
			<line fill="none" stroke="#231F20" stroke-width="1.6" stroke-linecap="round" x1="17.3" y1="-44.4" x2="20.1" y2="-47.6"/>
			<line fill="none" stroke="#231F20" stroke-width="1.6" stroke-linecap="round" x1="38.9" y1="-39.6" x2="38.4" y2="-34.1"/>
			<line fill="none" stroke="#231F20" stroke-width="1.6" stroke-linecap="round" x1="25.7" y1="-38.1" x2="27.6" y2="-42.8"/>
			<line fill="none" stroke="#231F20" stroke-width="1.6" stroke-linecap="round" x1="29.9" y1="-19.4" x2="28.5" y2="-15.4"/>
			<line fill="none" stroke="#231F20" stroke-width="1.6" stroke-linecap="round" x1="35.9" y1="-19.9" x2="39.2" y2="-17.1"/>
			<line fill="none" stroke="#231F20" stroke-width="1.6" stroke-linecap="round" x1="20.5" y1="-39.6" x2="23.2" y2="-34.9"/>
			<line fill="none" stroke="#231F20" stroke-width="1.6" stroke-linecap="round" x1="29.3" y1="-6.4" x2="33" y2="-8.6"/>
			<line fill="none" stroke="#231F20" stroke-width="1.6" stroke-linecap="round" x1="19.2" y1="-32.6" x2="15" y2="-33.7"/>
			<line fill="none" stroke="#231F20" stroke-width="1.6" stroke-linecap="round" x1="18.6" y1="-41.2" x2="16.9" y2="-38.1"/>
			<line fill="none" stroke="#231F20" stroke-width="1.6" stroke-linecap="round" x1="49.9" y1="-55.6" x2="50.2" y2="-50.5"/>
			<line fill="none" stroke="#231F20" stroke-width="1.6" stroke-linecap="round" x1="34.6" y1="-58.1" x2="38" y2="-55.4"/>
			<line fill="none" stroke="#231F20" stroke-width="1.6" stroke-linecap="round" x1="29.4" y1="-56.1" x2="25.1" y2="-53.2"/>
			<line fill="none" stroke="#231F20" stroke-width="1.6" stroke-linecap="round" x1="17.9" y1="-59.2" x2="21.7" y2="-56.6"/>
			<line fill="none" stroke="#231F20" stroke-width="1.6" stroke-linecap="round" x1="32" y1="-45" x2="34.2" y2="-41.3"/>
			<line fill="none" stroke="#231F20" stroke-width="1.6" stroke-linecap="round" x1="34.2" y1="-52.4" x2="33.6" y2="-49"/>
			<line fill="none" stroke="#231F20" stroke-width="1.6" stroke-linecap="round" x1="37.5" y1="-52.9" x2="41.4" y2="-51.1"/>
			<line fill="none" stroke="#231F20" stroke-width="1.6" stroke-linecap="round" x1="29.7" y1="-51.7" x2="31.9" y2="-55.4"/>
			<line fill="none" stroke="#231F20" stroke-width="1.6" stroke-linecap="round" x1="52.4" y1="-40.4" x2="48.6" y2="-37"/>
			<line fill="none" stroke="#231F20" stroke-width="1.6" stroke-linecap="round" x1="21.9" y1="-41.9" x2="23.8" y2="-46.8"/>
			<line fill="none" stroke="#231F20" stroke-width="1.6" stroke-linecap="round" x1="20.9" y1="-52.9" x2="23.9" y2="-49.9"/>
			<line fill="none" stroke="#231F20" stroke-width="1.6" stroke-linecap="round" x1="46.4" y1="-56.8" x2="44.2" y2="-52.9"/>
			<line fill="none" stroke="#231F20" stroke-width="1.6" stroke-linecap="round" x1="48.7" y1="-46.4" x2="48.8" y2="-42.1"/>
			<line fill="none" stroke="#231F20" stroke-width="1.6" stroke-linecap="round" x1="44.8" y1="-49.1" x2="49.1" y2="-48.9"/>
			<line fill="none" stroke="#231F20" stroke-width="1.6" stroke-linecap="round" x1="30" y1="-48.5" x2="26.7" y2="-45.8"/>
			<line fill="none" stroke="#231F20" stroke-width="1.6" stroke-linecap="round" x1="49.4" y1="-30.8" x2="47.7" y2="-26.9"/>
			<line fill="none" stroke="#231F20" stroke-width="1.6" stroke-linecap="round" x1="54.3" y1="-22.9" x2="55" y2="-18.7"/>
			<line fill="none" stroke="#231F20" stroke-width="1.6" stroke-linecap="round" x1="54.9" y1="-27.9" x2="56.5" y2="-23.9"/>
			<line fill="none" stroke="#231F20" stroke-width="1.6" stroke-linecap="round" x1="54.9" y1="-14.8" x2="51.6" y2="-12.1"/>
			<line fill="none" stroke="#231F20" stroke-width="1.6" stroke-linecap="round" x1="56.8" y1="-11.3" x2="59" y2="-14.9"/>
			<line fill="none" stroke="#231F20" stroke-width="1.6" stroke-linecap="round" x1="47.7" y1="-16.3" x2="48.7" y2="-11.1"/>
			<line fill="none" stroke="#231F20" stroke-width="1.6" stroke-linecap="round" x1="58.8" y1="-38.2" x2="54.5" y2="-38.5"/>
			<line fill="none" stroke="#231F20" stroke-width="1.6" stroke-linecap="round" x1="60.5" y1="-21.3" x2="57.3" y2="-18.6"/>
			<line fill="none" stroke="#231F20" stroke-width="1.6" stroke-linecap="round" x1="51.8" y1="-25.1" x2="50" y2="-21.2"/>
			<line fill="none" stroke="#231F20" stroke-width="1.6" stroke-linecap="round" x1="57.6" y1="-35.3" x2="60.8" y2="-32.4"/>
			<line fill="none" stroke="#231F20" stroke-width="1.6" stroke-linecap="round" x1="11.9" y1="-56.1" x2="9.2" y2="-53.2"/>
			<line fill="none" stroke="#231F20" stroke-width="1.6" stroke-linecap="round" x1="18.2" y1="-51.3" x2="14.9" y2="-48.6"/>
			<line fill="none" stroke="#231F20" stroke-width="1.6" stroke-linecap="round" x1="15.4" y1="-59" x2="16.6" y2="-54.9"/>
			<line fill="none" stroke="#231F20" stroke-width="1.6" stroke-linecap="round" x1="51.9" y1="-30.8" x2="56.2" y2="-30.3"/>
			<line fill="none" stroke="#231F20" stroke-width="1.6" stroke-linecap="round" x1="10.9" y1="-13.7" x2="9.3" y2="-9.8"/>
			<line fill="none" stroke="#231F20" stroke-width="1.6" stroke-linecap="round" x1="12.5" y1="-8.5" x2="9.2" y2="-5.8"/>
			<line fill="none" stroke="#231F20" stroke-width="1.6" stroke-linecap="round" x1="10.3" y1="-31.6" x2="13.6" y2="-28.9"/>
			<line fill="none" stroke="#231F20" stroke-width="1.6" stroke-linecap="round" x1="53.1" y1="-54.4" x2="56.8" y2="-56.6"/>
			<line fill="none" stroke="#231F20" stroke-width="1.6" stroke-linecap="round" x1="54.4" y1="-51.9" x2="53" y2="-47.9"/>
			<line fill="none" stroke="#231F20" stroke-width="1.6" stroke-linecap="round" x1="4.7" y1="-47" x2="8.8" y2="-48"/>
			<line fill="none" stroke="#231F20" stroke-width="1.6" stroke-linecap="round" x1="6.7" y1="-32.6" x2="8.9" y2="-36.2"/>
			<line fill="none" stroke="#231F20" stroke-width="1.6" stroke-linecap="round" x1="9.7" y1="-43.2" x2="6.5" y2="-40.4"/>
			<line fill="none" stroke="#231F20" stroke-width="1.6" stroke-linecap="round" x1="11.5" y1="-46.6" x2="13.7" y2="-42.9"/>
			<line fill="none" stroke="#231F20" stroke-width="1.6" stroke-linecap="round" x1="9.9" y1="-40.4" x2="12.7" y2="-35.9"/>
			<line fill="none" stroke="#231F20" stroke-width="1.6" stroke-linecap="round" x1="8.2" y1="-29.1" x2="7.4" y2="-24.9"/>
			<line fill="none" stroke="#231F20" stroke-width="1.6" stroke-linecap="round" x1="13.7" y1="-25.9" x2="9.7" y2="-22.8"/>
			<line fill="none" stroke="#231F20" stroke-width="1.6" stroke-linecap="round" x1="15.6" y1="-11.6" x2="16" y2="-7.3"/>
			<line fill="none" stroke="#231F20" stroke-width="1.6" stroke-linecap="round" x1="38.9" y1="-48.9" x2="35" y2="-45.6"/>
			<line fill="none" stroke="#231F20" stroke-width="1.6" stroke-linecap="round" x1="41.6" y1="-48.2" x2="43.7" y2="-44.5"/>
			<line fill="none" stroke="#231F20" stroke-width="1.6" stroke-linecap="round" x1="37.5" y1="-43.9" x2="41.3" y2="-42"/>
			<line fill="none" stroke="#231F20" stroke-width="1.6" stroke-linecap="round" x1="32.6" y1="-24.7" x2="29.3" y2="-21.9"/>
			<line fill="none" stroke="#231F20" stroke-width="1.6" stroke-linecap="round" x1="24.4" y1="-16.8" x2="20.4" y2="-15.2"/>
			<line fill="none" stroke="#231F20" stroke-width="1.6" stroke-linecap="round" x1="24.2" y1="-11.4" x2="26.2" y2="-7.1"/>
			<line fill="none" stroke="#231F20" stroke-width="1.6" stroke-linecap="round" x1="40.4" y1="-14.1" x2="44.4" y2="-12.7"/>
			<line fill="none" stroke="#231F20" stroke-width="1.6" stroke-linecap="round" x1="41.2" y1="-58.4" x2="40.8" y2="-54"/>
			<line fill="none" stroke="#231F20" stroke-width="1.6" stroke-linecap="round" x1="45" y1="-19.9" x2="44" y2="-15.7"/>
			<line fill="none" stroke="#231F20" stroke-width="1.6" stroke-linecap="round" x1="40.4" y1="-11.8" x2="36.3" y2="-10.6"/>
			<line fill="none" stroke="#231F20" stroke-width="1.6" stroke-linecap="round" x1="36.7" y1="-37.9" x2="32.8" y2="-33.8"/>
			<line fill="none" stroke="#231F20" stroke-width="1.6" stroke-linecap="round" x1="54.1" y1="-10.2" x2="55.8" y2="-6.2"/>
			<line fill="none" stroke="#231F20" stroke-width="1.6" stroke-linecap="round" x1="60.4" y1="-25" x2="63.7" y2="-22.3"/>
			<line fill="none" stroke="#231F20" stroke-width="1.6" stroke-linecap="round" x1="61.1" y1="-15.3" x2="64.4" y2="-12.6"/>
			<line fill="none" stroke="#231F20" stroke-width="1.6" stroke-linecap="round" x1="58.4" y1="-29.3" x2="62.5" y2="-30.5"/>
			<line fill="none" stroke="#231F20" stroke-width="1.6" stroke-linecap="round" x1="60.6" y1="-40.1" x2="62.8" y2="-36.4"/>
			<line fill="none" stroke="#231F20" stroke-width="1.6" stroke-linecap="round" x1="62.3" y1="-47" x2="66.4" y2="-48"/>
			<line fill="none" stroke="#231F20" stroke-width="1.6" stroke-linecap="round" x1="63.2" y1="-9.9" x2="59.9" y2="-7.2"/>
			<line fill="none" stroke="#231F20" stroke-width="1.6" stroke-linecap="round" x1="55.3" y1="-47" x2="57" y2="-43"/>
			<line fill="none" stroke="#231F20" stroke-width="1.6" stroke-linecap="round" x1="64.5" y1="-18.6" x2="60.3" y2="-17.7"/>
			<line fill="none" stroke="#231F20" stroke-width="1.6" stroke-linecap="round" x1="55.1" y1="-35.4" x2="49.9" y2="-34.1"/>
			<line fill="none" stroke="#231F20" stroke-width="1.6" stroke-linecap="round" x1="10.3" y1="-50.3" x2="13.8" y2="-52.7"/>
			<line fill="none" stroke="#231F20" stroke-width="1.6" stroke-linecap="round" x1="49.2" y1="-19.1" x2="52.2" y2="-16"/>
			<line fill="none" stroke="#231F20" stroke-width="1.6" stroke-linecap="round" x1="57.3" y1="-52.8" x2="59.3" y2="-49.1"/>
			<line fill="none" stroke="#231F20" stroke-width="1.6" stroke-linecap="round" x1="63.2" y1="-43.6" x2="59" y2="-43.9"/>
			<line fill="none" stroke="#231F20" stroke-width="1.6" stroke-linecap="round" x1="30.5" y1="-41.7" x2="31.7" y2="-36.6"/>
			<line fill="none" stroke="#231F20" stroke-width="1.6" stroke-linecap="round" x1="46.3" y1="-25.1" x2="47.2" y2="-20.9"/>
			<line fill="none" stroke="#231F20" stroke-width="1.6" stroke-linecap="round" x1="51.4" y1="-43.5" x2="55.1" y2="-41.5"/>
			<line fill="none" stroke="#231F20" stroke-width="1.6" stroke-linecap="round" x1="39.2" y1="-7.1" x2="36.2" y2="-8.1"/>
			<line fill="none" stroke="#231F20" stroke-width="1.6" stroke-linecap="round" x1="24.8" y1="-59.7" x2="24.4" y2="-55.4"/>
			<line fill="none" stroke="#231F20" stroke-width="1.6" stroke-linecap="round" x1="6.2" y1="-55.9" x2="7.2" y2="-50.6"/>
			<line fill="none" stroke="#231F20" stroke-width="1.6" stroke-linecap="round" x1="60.4" y1="-53.4" x2="61.9" y2="-57.4"/>
			<line fill="none" stroke="#231F20" stroke-width="1.6" stroke-linecap="round" x1="51.9" y1="-8.8" x2="50.2" y2="-4.9"/>
			<line fill="none" stroke="#231F20" stroke-width="1.6" stroke-linecap="round" x1="48.5" y1="-1.7" x2="44.8" y2="-3.9"/>
			<line fill="none" stroke="#231F20" stroke-width="1.6" stroke-linecap="round" x1="33.7" y1="-6.3" x2="31.9" y2="-0.8"/>
			<line fill="none" stroke="#231F20" stroke-width="1.6" stroke-linecap="round" x1="25.7" y1="-5" x2="28.7" y2="-0.8"/>
			<line fill="none" stroke="#231F20" stroke-width="1.6" stroke-linecap="round" x1="55.1" y1="-4.1" x2="51.8" y2="-1.4"/>
			<line fill="none" stroke="#231F20" stroke-width="1.6" stroke-linecap="round" x1="12.7" y1="-5.7" x2="11.8" y2="-1.5"/>
			<line fill="none" stroke="#231F20" stroke-width="1.6" stroke-linecap="round" x1="19.2" y1="-5.9" x2="15.9" y2="-3.5"/>
			<line fill="none" stroke="#231F20" stroke-width="1.6" stroke-linecap="round" x1="5.8" y1="-6.1" x2="6.6" y2="-1.9"/>
			<line fill="none" stroke="#231F20" stroke-width="1.6" stroke-linecap="round" x1="58.2" y1="-1.1" x2="60.4" y2="-4.8"/>
			<line fill="none" stroke="#231F20" stroke-width="1.6" stroke-linecap="round" x1="38.2" y1="-0.8" x2="38.2" y2="-4.1"/>
			<line fill="none" stroke="#231F20" stroke-width="1.6" stroke-linecap="round" x1="21.1" y1="-7.4" x2="21.8" y2="-3.1"/>
			<line fill="none" stroke="#231F20" stroke-width="1.6" stroke-linecap="round" x1="41.3" y1="-5.7" x2="43.2" y2="-2.4"/>
		</g>
		<g>
			<line fill="none" stroke="#231F20" stroke-width="1.6" stroke-linecap="round" x1="2.8" y1="-25" x2="6.1" y2="-22.3"/>
			<line fill="none" stroke="#231F20" stroke-width="1.6" stroke-linecap="round" x1="3.5" y1="-15.3" x2="6.8" y2="-12.6"/>
			<line fill="none" stroke="#231F20" stroke-width="1.6" stroke-linecap="round" x1="0.8" y1="-29.3" x2="4.9" y2="-30.5"/>
			<line fill="none" stroke="#231F20" stroke-width="1.6" stroke-linecap="round" x1="3" y1="-40.1" x2="5.2" y2="-36.4"/>
			<line fill="none" stroke="#231F20" stroke-width="1.6" stroke-linecap="round" x1="4.7" y1="-47" x2="8.8" y2="-48"/>
			<line fill="none" stroke="#231F20" stroke-width="1.6" stroke-linecap="round" x1="5.6" y1="-9.9" x2="2.3" y2="-7.2"/>
			<line fill="none" stroke="#231F20" stroke-width="1.6" stroke-linecap="round" x1="6.9" y1="-18.6" x2="2.7" y2="-17.7"/>
			<line fill="none" stroke="#231F20" stroke-width="1.6" stroke-linecap="round" x1="5.6" y1="-43.6" x2="1.4" y2="-43.9"/>
			<line fill="none" stroke="#231F20" stroke-width="1.6" stroke-linecap="round" x1="2.8" y1="-53.4" x2="4.3" y2="-57.4"/>
		</g>
		<g>
			<line fill="none" stroke="#231F20" stroke-width="1.6" stroke-linecap="round" x1="48.5" y1="-59.3" x2="44.8" y2="-61.5"/>
			<line fill="none" stroke="#231F20" stroke-width="1.6" stroke-linecap="round" x1="33.7" y1="-63.9" x2="31.9" y2="-58.4"/>
			<line fill="none" stroke="#231F20" stroke-width="1.6" stroke-linecap="round" x1="25.7" y1="-62.7" x2="28.7" y2="-58.4"/>
			<line fill="none" stroke="#231F20" stroke-width="1.6" stroke-linecap="round" x1="55.1" y1="-61.7" x2="51.8" y2="-59"/>
			<line fill="none" stroke="#231F20" stroke-width="1.6" stroke-linecap="round" x1="12.7" y1="-63.3" x2="11.8" y2="-59.1"/>
			<line fill="none" stroke="#231F20" stroke-width="1.6" stroke-linecap="round" x1="19.2" y1="-63.5" x2="15.9" y2="-61.2"/>
			<line fill="none" stroke="#231F20" stroke-width="1.6" stroke-linecap="round" x1="5.8" y1="-63.7" x2="6.6" y2="-59.5"/>
			<line fill="none" stroke="#231F20" stroke-width="1.6" stroke-linecap="round" x1="58.2" y1="-58.7" x2="60.4" y2="-62.4"/>
			<line fill="none" stroke="#231F20" stroke-width="1.6" stroke-linecap="round" x1="38.2" y1="-58.4" x2="38.2" y2="-61.7"/>
			<line fill="none" stroke="#231F20" stroke-width="1.6" stroke-linecap="round" x1="21.1" y1="-65" x2="21.8" y2="-60.8"/>
			<line fill="none" stroke="#231F20" stroke-width="1.6" stroke-linecap="round" x1="41.3" y1="-63.3" x2="43.2" y2="-60"/>
		</g>
	</g>
</pattern>
<pattern  x="1046" y="1821" width="57.6" height="57.6" patternUnits="userSpaceOnUse" id="Crosses" viewBox="0 -57.6 57.6 57.6" overflow="visible">
	<g>
		<polygon fill="none" points="0,-57.6 57.6,-57.6 57.6,0 0,0 		"/>
		<line fill="none" stroke="#231F20" stroke-width="0.3" x1="52.5" y1="-54" x2="55.5" y2="-54"/>
		<line fill="none" stroke="#231F20" stroke-width="0.3" x1="38.1" y1="-54" x2="41.1" y2="-54"/>
		<line fill="none" stroke="#231F20" stroke-width="0.3" x1="23.7" y1="-54" x2="26.7" y2="-54"/>
		<line fill="none" stroke="#231F20" stroke-width="0.3" x1="9.3" y1="-54" x2="12.3" y2="-54"/>
		<line fill="none" stroke="#231F20" stroke-width="0.3" x1="45.3" y1="-46.8" x2="48.3" y2="-46.8"/>
		<line fill="none" stroke="#231F20" stroke-width="0.3" x1="30.9" y1="-46.8" x2="33.9" y2="-46.8"/>
		<line fill="none" stroke="#231F20" stroke-width="0.3" x1="16.5" y1="-46.8" x2="19.5" y2="-46.8"/>
		<line fill="none" stroke="#231F20" stroke-width="0.3" x1="2.1" y1="-46.8" x2="5.1" y2="-46.8"/>
		<line fill="none" stroke="#231F20" stroke-width="0.3" x1="52.5" y1="-39.6" x2="55.5" y2="-39.6"/>
		<line fill="none" stroke="#231F20" stroke-width="0.3" x1="38.1" y1="-39.6" x2="41.1" y2="-39.6"/>
		<line fill="none" stroke="#231F20" stroke-width="0.3" x1="23.7" y1="-39.6" x2="26.7" y2="-39.6"/>
		<line fill="none" stroke="#231F20" stroke-width="0.3" x1="9.3" y1="-39.6" x2="12.3" y2="-39.6"/>
		<line fill="none" stroke="#231F20" stroke-width="0.3" x1="45.3" y1="-32.4" x2="48.3" y2="-32.4"/>
		<line fill="none" stroke="#231F20" stroke-width="0.3" x1="30.9" y1="-32.4" x2="33.9" y2="-32.4"/>
		<line fill="none" stroke="#231F20" stroke-width="0.3" x1="16.5" y1="-32.4" x2="19.5" y2="-32.4"/>
		<line fill="none" stroke="#231F20" stroke-width="0.3" x1="2.1" y1="-32.4" x2="5.1" y2="-32.4"/>
		<line fill="none" stroke="#231F20" stroke-width="0.3" x1="52.5" y1="-25.2" x2="55.5" y2="-25.2"/>
		<line fill="none" stroke="#231F20" stroke-width="0.3" x1="38.1" y1="-25.2" x2="41.1" y2="-25.2"/>
		<line fill="none" stroke="#231F20" stroke-width="0.3" x1="23.7" y1="-25.2" x2="26.7" y2="-25.2"/>
		<line fill="none" stroke="#231F20" stroke-width="0.3" x1="9.3" y1="-25.2" x2="12.3" y2="-25.2"/>
		<line fill="none" stroke="#231F20" stroke-width="0.3" x1="45.3" y1="-18" x2="48.3" y2="-18"/>
		<line fill="none" stroke="#231F20" stroke-width="0.3" x1="30.9" y1="-18" x2="33.9" y2="-18"/>
		<line fill="none" stroke="#231F20" stroke-width="0.3" x1="16.5" y1="-18" x2="19.5" y2="-18"/>
		<line fill="none" stroke="#231F20" stroke-width="0.3" x1="2.1" y1="-18" x2="5.1" y2="-18"/>
		<line fill="none" stroke="#231F20" stroke-width="0.3" x1="52.5" y1="-10.8" x2="55.5" y2="-10.8"/>
		<line fill="none" stroke="#231F20" stroke-width="0.3" x1="38.1" y1="-10.8" x2="41.1" y2="-10.8"/>
		<line fill="none" stroke="#231F20" stroke-width="0.3" x1="23.7" y1="-10.8" x2="26.7" y2="-10.8"/>
		<line fill="none" stroke="#231F20" stroke-width="0.3" x1="9.3" y1="-10.8" x2="12.3" y2="-10.8"/>
		<line fill="none" stroke="#231F20" stroke-width="0.3" x1="45.3" y1="-3.6" x2="48.3" y2="-3.6"/>
		<line fill="none" stroke="#231F20" stroke-width="0.3" x1="30.9" y1="-3.6" x2="33.9" y2="-3.6"/>
		<line fill="none" stroke="#231F20" stroke-width="0.3" x1="16.5" y1="-3.6" x2="19.5" y2="-3.6"/>
		<line fill="none" stroke="#231F20" stroke-width="0.3" x1="2.1" y1="-3.6" x2="5.1" y2="-3.6"/>
		<line fill="none" stroke="#231F20" stroke-width="0.3" x1="54" y1="-55.5" x2="54" y2="-52.5"/>
		<line fill="none" stroke="#231F20" stroke-width="0.3" x1="39.6" y1="-55.5" x2="39.6" y2="-52.5"/>
		<line fill="none" stroke="#231F20" stroke-width="0.3" x1="25.2" y1="-55.5" x2="25.2" y2="-52.5"/>
		<line fill="none" stroke="#231F20" stroke-width="0.3" x1="10.8" y1="-55.5" x2="10.8" y2="-52.5"/>
		<line fill="none" stroke="#231F20" stroke-width="0.3" x1="46.8" y1="-48.3" x2="46.8" y2="-45.3"/>
		<line fill="none" stroke="#231F20" stroke-width="0.3" x1="32.4" y1="-48.3" x2="32.4" y2="-45.3"/>
		<line fill="none" stroke="#231F20" stroke-width="0.3" x1="18" y1="-48.3" x2="18" y2="-45.3"/>
		<line fill="none" stroke="#231F20" stroke-width="0.3" x1="3.6" y1="-48.3" x2="3.6" y2="-45.3"/>
		<line fill="none" stroke="#231F20" stroke-width="0.3" x1="54" y1="-41.1" x2="54" y2="-38.1"/>
		<line fill="none" stroke="#231F20" stroke-width="0.3" x1="39.6" y1="-41.1" x2="39.6" y2="-38.1"/>
		<line fill="none" stroke="#231F20" stroke-width="0.3" x1="25.2" y1="-41.1" x2="25.2" y2="-38.1"/>
		<line fill="none" stroke="#231F20" stroke-width="0.3" x1="10.8" y1="-41.1" x2="10.8" y2="-38.1"/>
		<line fill="none" stroke="#231F20" stroke-width="0.3" x1="46.8" y1="-33.9" x2="46.8" y2="-30.9"/>
		<line fill="none" stroke="#231F20" stroke-width="0.3" x1="32.4" y1="-33.9" x2="32.4" y2="-30.9"/>
		<line fill="none" stroke="#231F20" stroke-width="0.3" x1="18" y1="-33.9" x2="18" y2="-30.9"/>
		<line fill="none" stroke="#231F20" stroke-width="0.3" x1="3.6" y1="-33.9" x2="3.6" y2="-30.9"/>
		<line fill="none" stroke="#231F20" stroke-width="0.3" x1="54" y1="-26.7" x2="54" y2="-23.7"/>
		<line fill="none" stroke="#231F20" stroke-width="0.3" x1="39.6" y1="-26.7" x2="39.6" y2="-23.7"/>
		<line fill="none" stroke="#231F20" stroke-width="0.3" x1="25.2" y1="-26.7" x2="25.2" y2="-23.7"/>
		<line fill="none" stroke="#231F20" stroke-width="0.3" x1="10.8" y1="-26.7" x2="10.8" y2="-23.7"/>
		<line fill="none" stroke="#231F20" stroke-width="0.3" x1="46.8" y1="-19.5" x2="46.8" y2="-16.5"/>
		<line fill="none" stroke="#231F20" stroke-width="0.3" x1="32.4" y1="-19.5" x2="32.4" y2="-16.5"/>
		<line fill="none" stroke="#231F20" stroke-width="0.3" x1="18" y1="-19.5" x2="18" y2="-16.5"/>
		<line fill="none" stroke="#231F20" stroke-width="0.3" x1="3.6" y1="-19.5" x2="3.6" y2="-16.5"/>
		<line fill="none" stroke="#231F20" stroke-width="0.3" x1="54" y1="-12.3" x2="54" y2="-9.3"/>
		<line fill="none" stroke="#231F20" stroke-width="0.3" x1="39.6" y1="-12.3" x2="39.6" y2="-9.3"/>
		<line fill="none" stroke="#231F20" stroke-width="0.3" x1="25.2" y1="-12.3" x2="25.2" y2="-9.3"/>
		<line fill="none" stroke="#231F20" stroke-width="0.3" x1="10.8" y1="-12.3" x2="10.8" y2="-9.3"/>
		<line fill="none" stroke="#231F20" stroke-width="0.3" x1="46.8" y1="-5.1" x2="46.8" y2="-2.1"/>
		<line fill="none" stroke="#231F20" stroke-width="0.3" x1="32.4" y1="-5.1" x2="32.4" y2="-2.1"/>
		<line fill="none" stroke="#231F20" stroke-width="0.3" x1="18" y1="-5.1" x2="18" y2="-2.1"/>
		<line fill="none" stroke="#231F20" stroke-width="0.3" x1="3.6" y1="-5.1" x2="3.6" y2="-2.1"/>
	</g>
</pattern>
<g>
	<g>
		<polygon fill="#399FD3" points="0.3,434 250.3,1 500.3,434 		"/>
		<pattern  id="SVGID_1_" xlink:href="#Crosses" patternTransform="matrix(1 0 0 1 -446.1199 7.157424e-02)">
		</pattern>
		<polygon fill="url(#SVGID_1_)" points="0.3,434 250.3,1 500.3,434 		"/>
	</g>
	<g>
		<polygon fill="#399FD3" points="72.8,389 250.3,81.6 427.8,389 		"/>
		<pattern  id="SVGID_2_" xlink:href="#Capsules" patternTransform="matrix(1 0 0 1 -446.1198 7.157424e-02)">
		</pattern>
		<polygon opacity="0.4" fill="url(#SVGID_2_)" points="72.8,389 250.3,81.6 427.8,389 		"/>
	</g>
	<g>
		<polygon fill="#399FD3" points="166.1,332 250.3,186.2 334.5,332 		"/>
		<pattern  id="SVGID_3_" xlink:href="#Crosses" patternTransform="matrix(1 0 0 1 -446.1199 7.157424e-02)">
		</pattern>
		<polygon fill="url(#SVGID_3_)" points="166.1,332 250.3,186.2 334.5,332 		"/>
	</g>
	<g>
		<polygon fill="#399FD3" points="210.7,307 250.3,238.4 289.9,307 		"/>
		<pattern  id="SVGID_4_" xlink:href="#Capsules" patternTransform="matrix(1 0 0 1 -446.1198 7.157424e-02)">
		</pattern>
		<polygon opacity="0.4" fill="url(#SVGID_4_)" points="210.7,307 250.3,238.4 289.9,307 		"/>
	</g>
</g>
</svg>
