<?xml version="1.0" encoding="utf-8"?>
<!-- Generator: Adobe Illustrator 17.1.0, SVG Export Plug-In . SVG Version: 6.00 Build 0)  -->
<!DOCTYPE svg PUBLIC "-//W3C//DTD SVG 1.1//EN" "http://www.w3.org/Graphics/SVG/1.1/DTD/svg11.dtd">
<svg version="1.1" id="Layer_1" xmlns="http://www.w3.org/2000/svg" xmlns:xlink="http://www.w3.org/1999/xlink" x="0px" y="0px"
	 viewBox="0 0 500 433.7" enable-background="new 0 0 500 433.7" xml:space="preserve">
<pattern  x="3305" y="1821" width="54" height="54" patternUnits="userSpaceOnUse" id="USGS_21_Intricate_Surface" viewBox="10.5 -67.3 54 54" overflow="visible">
	<g>
		<polygon fill="none" points="10.5,-67.3 64.5,-67.3 64.5,-13.3 10.5,-13.3 		"/>
		<g>
			<path fill="#231F20" d="M33.1-11.8c-0.8,0.5-1.3,4.7-2.1,5.3c-0.3,0.2-0.8,0.7-0.8,0.9c0,0.5-0.3,0.4-0.3,0.9c0,1-0.7,2.3-2.1,2
				c-0.4-0.1-0.7-1,1.4-2.1c0.2-0.1,0-0.9,0.1-1.3c2-5.3,3.9-9.6,4.4-8.3L33.1-11.8z"/>
			<path fill="#231F20" d="M38.8-10.8c-0.2-0.5-0.4-0.8-0.4-1.2c-1.1,0.2-2.2,0.5-3.3,0.7c-0.9-1,1.1-1.4,2.5-2.1
				c0.5-0.2,2.2-1.3,2.7-1.4C40.1-13.8,39.1-12.1,38.8-10.8z"/>
			<path fill="#231F20" d="M59.2-8.2c0.2,0.7-0.2,1.3-0.8,1.4c-0.9,0.1-2,0.4-2,0.9c-0.1,1.6-1.2,2.6-2.5,3c1.2-2.3,2.9-3.8,5.2-5.4
				c0.2-0.2-0.1-0.9,0.1-1.3C60-11,62-9.6,62.2-12c0-0.2-0.4-0.5-0.7-0.7c2.1,0.6,1.9-2.1,3.8-2.2c0,0.5,0,1,0,1.5
				c-0.9-0.2-1.5,0.4-2.3,0.7C60.7-11.6,63.1-8.7,59.2-8.2z"/>
			<path fill="#231F20" d="M14.4-6.8c-0.3-2,2.6-5.8,3.6-7.5c0.5,0.5,0.3,1.3,0.2,1.7c-0.4,2-2.6,3.3-2.6,5.9
				c-0.6,0.9-0.5,1.6-2.1,1.5L14.4-6.8z"/>
			<path fill="#231F20" d="M21.9-12c0.2-0.9-0.3-1.6-0.8-2.2c0.7-0.2,1.3,0.2,1.4,0.8C22.6-12.9,22.2-12.5,21.9-12z"/>
			<path fill="#231F20" d="M12.8-12.2c-1.8-0.2-0.2-1.6-0.8-2.2C14.2-14.3,11.4-12.6,12.8-12.2z"/>
			<path fill="#231F20" d="M24.1-11.1c1.7-1.2,2.3-4.9,4.1-5.7c-1.5,1.2-1.7,4.9-2.9,6.2c-2.3,2.5-5.6,3.8-7.3,6.9
				C17.5-2.6,18.8-1,17.2,0C17-2.4,17-5,18.9-6.6C20.9-8.1,22.1-9.6,24.1-11.1z"/>
			<path fill="#231F20" d="M47-11.6c-0.4,0.5-1.2-0.1-1.3-0.7c-0.2-1-1.2-2.6-0.1-3c0.9,0.8,1.9,0.8,3,0.8
				C46-14.5,47.7-12.4,47-11.6z"/>
			<path fill="#231F20" d="M54.5-10.9c0.2,0.3,0.7-0.1,1-0.4c-1.1-0.6,0.1-2.2-1.2-2.4c-0.5-0.1-1,0.5-1.7,0.4
				C53.1-12.2,53.9-12,54.5-10.9z"/>
		</g>
		<g>
			<path fill="#231F20" d="M5.2-8.2c0.2,0.7-0.2,1.3-0.8,1.4c-0.9,0.1-2,0.4-2,0.9C2.4-4.4,1.3-3.4,0-3c1.2-2.3,2.9-3.8,5.2-5.4
				c0.2-0.2-0.1-0.9,0.1-1.3C6-11,8-9.6,8.2-12c0-0.2-0.4-0.5-0.7-0.7c2.1,0.6,1.9-2.1,3.8-2.2c0,0.5,0,1,0,1.5
				c-0.9-0.2-1.5,0.4-2.3,0.7C6.7-11.6,9.1-8.7,5.2-8.2z"/>
		</g>
		<g>
			<path fill="#231F20" d="M63.8-24.1c0.8-0.3,1.7,0.7,2.1,0.5c2.1-1,2-3.6,4.7-1.4c0,0,0.6-0.4,0.6-0.6c-0.1-0.8-0.9-1.4-0.6-2.2
				c0.2-0.6,0.8-0.7,1.4-0.9c1.9-0.6-0.5-2.5,2.2-3.8c0.3-0.2,0.3-1.4,0-2c-0.8-1.3-2.3-0.8-3.6-0.8c1.3,0.1,2.2-0.6,3-1.5
				c-0.3,0.5-0.5,1-0.8,1.5c1,0.5,2,1,3,1.5c-0.5,0.3-1.2,0.4-1.4,0.8c-0.3,0.9,0.2,2.1-0.3,2.9c-0.1,0.2-1-0.1-1.3,0.2
				c-1.2,1.4-0.6,4-1.8,4.8c-2,1.4-6,1-7,4.1c-0.2,0.6,1.1,1.3,2,1.3c1,0.1,1.9-0.7,2.2-2.1c-0.2,0.9,0.2,1.9,0.8,2.1
				c1.5,0.6,1.4-2.5,2.9-2c0.4,0.1,0.8,0.9,0.7,1.3c-0.1,0.4-0.9,0.7-1.4,0.7c-0.3,0-0.6-0.6-0.7-0.6c-1.5,0.7-3.6,0.5-4.5,2.2
				c-0.2,0.4-0.1,1-0.1,1.5c-0.8-0.1-2.2,0.3-2.1-0.7c0.1-1,1-2,0.5-3c-0.2-0.4-0.9-0.5-1.4-0.8L63.8-24.1z"/>
			<path fill="#231F20" d="M65.2-33.2c-1.6,0.2-0.7-0.9-0.8-1.5C64.8-34.2,65-33.7,65.2-33.2z"/>
			<path fill="#231F20" d="M64.9-57.9c-0.1,2.4-0.2,1.6-2.6,2.4c0.5-0.3,2-0.9,2.1-1.3c0.2-0.8-0.1-1.1,0.3-1.8
				c-0.2-0.8-1.5-0.7-0.8-1.8c1-1.5,0.2-3.7,2.1-4.5c0.4-0.2,0.2,0.5,0.7,0.5C66.8-62.4,65-60.1,64.9-57.9z"/>
			<path fill="#231F20" d="M63-30c0.5-1.5,1.8-1.3,3-1.5C65.3-30.5,64.1-30.3,63-30z"/>
		</g>
		<g>
			<path fill="#231F20" d="M16.1-38.2c-0.2,0.1-0.5,0-0.7,0c0.4-0.8,0.7-1.7,1.5-2.2c0.3,0.5,0.7,1.1,0.6,1.5
				C17.4-38.6,16.7-38.4,16.1-38.2z"/>
			<path fill="#231F20" d="M33.1-65.8c-0.8,0.5-1.3,4.7-2.1,5.2c-0.3,0.2-0.8,0.7-0.8,0.9c0,0.5-0.3,0.4-0.3,0.9c0,1-0.7,2.3-2.1,2
				c-0.4-0.1-0.7-1,1.4-2.1c0.2-0.1,0-0.9,0.1-1.3c2-5.3,3.9-9.6,4.4-8.3L33.1-65.8z"/>
			<path fill="#231F20" d="M24.8-57.3c-0.7-0.2-1.7-1.1-1.6-1.3C24.1-61,25-62,25.9-62c0.9,0-1.2,1.4-1.7,2.5
				c-0.5,1,1.9,2.5,1.5,3.1C25.3-55.8,25.3-56.7,24.8-57.3z"/>
			<path fill="#231F20" d="M22.5-56.2c-0.6,1.9-0.4,2.1-3,3c0.8-0.2,0.6,0.1,0.8-2.2C20.3-55.8,22-56,22.5-56.2z"/>
			<path fill="#231F20" d="M20.2-47.3c-0.2,0.5-0.5,1.3-0.7,1.3c-2,0.2-2.4,1.7-3,3.2c1.3,0.4,2.2,1.7,3.8,1.5
				c-0.7,0.4-1.5,1.1-2.2,0.6c-0.3-0.2,0-1.2-0.1-1.2c-2.9-1-2.2-3.1-0.6-4.5c0.2-0.1,1,0.6,1.3,0.5c1.3-0.7-0.5-4.5,0.8-3.6
				c0.7,0.7,1.7,1.5,2.8-0.1c0.5-0.7,0.2-1.9,0.2-2.9c0.4-0.8,2.1-0.3,2.1,0.8C24.7-49.2,21.1-49.5,20.2-47.3z"/>
			<path fill="#231F20" d="M29.2-49.5c-0.2,0.3-0.5,0.7-0.7,0.7c-0.3,0-0.5-0.4-0.8-0.7c0.5-0.3,1.3-0.5,1.3-0.8
				c0.1-1.5-0.2-3.2-2.1-3.7C30-54.9,30.9-51.6,29.2-49.5z"/>
			<path fill="#231F20" d="M32.4-48c0.3-3.9-0.5-6,3.6-4.5c0.9,1.3-1.8,0.2-2.1,0.8c-0.2,0.3,1.7,1.1,1.6,1.4
				c-0.1,0.4-2.1,0.4-2.3,0.8c-0.4,0.7,0.3,1.5,0.7,2.2C33.2-47.5,32.4-47.8,32.4-48z"/>
			<path fill="#231F20" d="M36.7-47.4c-0.1,0.1-0.5-0.4-0.7-0.6c0.8-0.4,1.3-2.1,2.1-1.3C38.8-48.6,37.5-47.1,36.7-47.4z"/>
			<path fill="#231F20" d="M26-40.6c-0.4,0.5-1.2-0.1-1.3-0.7c-0.2-1-1.2-2.6-0.1-3c0.9,0.8,1.9,0.8,3,0.8
				C25-43.5,26.7-41.4,26-40.6z"/>
			<path fill="#231F20" d="M41.5-51.2c2.8-0.4,3.1-2.8,4.6-4.2c0.3-0.3,1,0.1,1.4-0.2c0.9-0.7,1-1.8,0.8-2.9
				c1.3,1.7,2.6-0.6,3.6,0.2c1.7,1.5,1.5,4,3.9,5c-0.4,1.9-2.1,2.9-3,4.5c0.8-2.6,2.8-5.4-0.8-6.8c0.3-0.3,0.7-0.5,0.7-0.8
				c0-0.5-0.3-1.2-0.7-1.4c-0.9-0.4-2.3-0.3-2.8,0.7c-0.9,1.8-1.5,1.9-2.9,3.2c-0.7,0.6,0,2.4-1,3.5c-0.3-0.3-0.6-0.8-0.7-0.7
				c-1,1.8-2.3,1.6-2.6,0.5L41.5-51.2z"/>
			<path fill="#231F20" d="M40.9-55L40.9-55c-0.2-0.2-1.3,0.4-1.3,0.7c-0.1,1.6-0.4,3.3-2.4,3c2.4-2,3.1-4.9,4.4-7.5
				c0.4-0.9-2.7-3.1-1.4-3.9l2.2,0.9c0.7-0.7,1.4-1.2,3,0c-1.1,0-2.3-0.2-2.9,0.8c-0.9,1.7-0.1,2.6-0.3,4.4c0,0.3-1.1,0.4-1.2,0.8
				C41-55.5,40.9-55.2,40.9-55z"/>
			<path fill="#231F20" d="M38.8-64.8c-0.2-0.5-0.4-0.8-0.4-1.2c-1.1,0.2-2.2,0.5-3.3,0.7c-0.9-1,1.1-1.4,2.5-2.1
				c0.5-0.2,2.2-1.3,2.7-1.4C40.1-67.8,39.1-66.1,38.8-64.8z"/>
			<path fill="#231F20" d="M48.8-26.2c0.5-1.1,1.4-0.7,2.2-0.8C50.5-26.1,49.6-26.1,48.8-26.2z"/>
			<path fill="#231F20" d="M58.1-65.2c-0.5,4.3-0.6,0-0.8,0c0.7-0.3,1.8-0.2,1.5-1.5C58.5-66.2,58.1-65.8,58.1-65.2z"/>
			<path fill="#231F20" d="M59.2-62.2c0.2,0.7-0.2,1.3-0.8,1.4c-0.9,0.1-2,0.4-2,0.9c-0.1,1.6-1.2,2.6-2.5,3
				c1.2-2.3,2.9-3.8,5.2-5.4c0.2-0.2-0.1-0.9,0.1-1.3C60-65,62-63.6,62.2-66c0-0.2-0.4-0.5-0.7-0.7c2.1,0.6,1.9-2.1,3.8-2.2
				c0,0.5,0,1,0,1.5c-0.9-0.2-1.5,0.4-2.3,0.7C60.7-65.6,63.1-62.7,59.2-62.2z"/>
			<path fill="#231F20" d="M61.4-56.3c-0.2,0.9-0.6,2-1.5,2.1c-0.7,0.1-1.5,1.1-2.2-1.4c2.3,0.7,3-1.2,3.8-3
				C61.5-57.7,61.6-57,61.4-56.3z"/>
			<path fill="#231F20" d="M57.8-48.7c-0.2,0.4-0.1,1-0.1,1.5c-0.8-0.9-1.1-2.1-0.6-2.9c0.3-0.4,1.3-0.1,2.1-0.1
				C58.7-49.7,58.1-49.3,57.8-48.7z"/>
			<path fill="#231F20" d="M45.2-45c0-0.5,0.3-1.2,0.1-1.4c-0.8-0.5-1.9-0.3-2.9-0.4c0.3-0.2,0.5-0.5,0.8-0.6c0.9-0.2,1.7,0.9,2,0.7
				c1.9-1.1,4.2-4.7,5.8-6.3c0.2,0.3-1,2.6-1,2.7C48.2-48.1,47-47.2,45.2-45z"/>
			<path fill="#231F20" d="M49.3-43.1c-0.7-0.4-2-0.4-1.3-1.5c1.3-2.2,4.1-2.2,5.9-3.8c0.4,2.1,3.2,1.6,4.4,3.1
				c0.3,0.3,0,0.9,0.1,1.4c0.2,0.8,0.2,1.8,1.5,1.5c-0.3,0.3-0.5,0.5-0.8,0.8c-1.3-2-1.6,0.2-3,0c0.5-0.3,1.3-0.4,1.4-0.8
				c0.4-1.2,0.5-2.7-0.7-3.7c-0.4-0.4-1.1-0.8-1.4-0.6c-0.9,0.5-1,1.7-0.8,2.9c-1.2-1.1-1.8-3.8-3.6-2.8c-0.6,0.3-1.3,1.2-2.1,2.2
				c-1.1,1.3,2.4,0.9,2,2.8C50.3-42.1,49.9-42.7,49.3-43.1z"/>
			<path fill="#231F20" d="M42.3-42.8c0.1,0.2,1-0.3,1.2-0.1c0.5,0.5,1.8,1.1,2,1.9c0.4-0.3,1.2-0.7,1.2-1c0-1-2.5-1.2-3.9-1.7
				c-0.7-0.2-1.2-1-1.2-1.9C41.8-44.7,41.8-43.5,42.3-42.8z"/>
			<path fill="#231F20" d="M38.9-43.2c0.5,1.6-0.8,1.1-1.4,0.2c-0.4-0.9-0.9-3.7,1.5-3.8c0.2,0,0.5,0.4,0.7,0.7
				C39.2-45.8,37.2-48.8,38.9-43.2z"/>
			<path fill="#231F20" d="M14.4-60.8c-0.3-2,2.6-5.8,3.6-7.5c0.5,0.5,0.3,1.3,0.2,1.7c-0.4,2-2.6,3.3-2.6,5.9
				c-0.6,0.9-0.5,1.6-2.1,1.5L14.4-60.8z"/>
			<path fill="#231F20" d="M11.8-52.9c2.3-1.3,0-1.4,2.7-2.6c1.3,0.4,1.6,2,1.7,3.4c0,0.3-0.4,1.4-0.4,1.9c-0.3-0.5-0.5-1-0.8-1.5
				c-0.3-0.5-0.5-1.8-0.6-1.8C13-53.8,11.8-52.9,11.8-52.9z"/>
			<path fill="#231F20" d="M27.6-64.9c0-0.5,0-1,0-1.5c0.7,0.4,1.4,0.9,2.2,0.8C29.1-65.4,28.4-65.2,27.6-64.9z"/>
			<path fill="#231F20" d="M14.3-45.9c0.5,1.6-0.8,1.1-1.4,0.2c-0.4-0.9-0.9-3.7,1.5-3.8c0.2,0,0.5,0.4,0.7,0.7
				C14.7-48.5,12.6-51.5,14.3-45.9z"/>
			<path fill="#231F20" d="M9.8-24.1c0.8-0.3,1.7,0.7,2.1,0.5c2.1-1,2-3.6,4.7-1.4c0,0,0.6-0.4,0.6-0.6c-0.1-0.8-0.9-1.4-0.6-2.2
				c0.2-0.6,0.8-0.7,1.4-0.9c1.9-0.6-0.5-2.5,2.2-3.8c0.3-0.2,0.3-1.4,0-2c-0.8-1.3-2.3-0.8-3.6-0.8c1.3,0.1,2.2-0.6,3-1.5
				c-0.3,0.5-0.5,1-0.8,1.5c1,0.5,2,1,3,1.5c-0.5,0.3-1.2,0.4-1.4,0.8c-0.3,0.9,0.2,2.1-0.3,2.9c-0.1,0.2-1-0.1-1.3,0.2
				c-1.2,1.4-0.6,4-1.8,4.8c-2,1.4-6,1-7,4.1c-0.2,0.6,1.1,1.3,2,1.3c1,0.1,1.9-0.7,2.2-2.1c-0.2,0.9,0.2,1.9,0.8,2.1
				c1.5,0.6,1.4-2.5,2.9-2c0.4,0.1,0.8,0.9,0.7,1.3c-0.1,0.4-0.9,0.7-1.4,0.7c-0.3,0-0.6-0.6-0.7-0.6c-1.5,0.7-3.6,0.5-4.5,2.2
				c-0.2,0.4-0.1,1-0.1,1.5c-0.8-0.1-2.2,0.3-2.1-0.7c0.1-1,1-2,0.5-3c-0.2-0.4-0.9-0.5-1.4-0.8L9.8-24.1z"/>
			<path fill="#231F20" d="M20.7-16.7c0.4-0.1,0.5-0.9,0.8-1.4c0.5,0.3,1,0.5,1.5,0.8c1.3-3.2,3.6-7.4,7.5-7.5c0,0.5,0,1,0,1.5
				c-0.9-0.2-1.8,0.2-2.1,0.8c-0.7,1.2,1.6,1.9-0.1,3.7c0-1.3,0.4-3.1-0.8-3.5c-1.5-0.5-2.5,1.9-2.2,3.5c-0.5,0-1.3-0.1-1.4,0.1
				c-0.9,2-3.3,2.4-3.9,4.4c-1.2-1.3-3.4-1.6-3.8-3.7C18.1-18.6,19.1-16.1,20.7-16.7z"/>
			<path fill="#231F20" d="M11.2-33.2c-1.6,0.2-0.7-0.9-0.8-1.5C10.8-34.2,11-33.7,11.2-33.2z"/>
			<path fill="#231F20" d="M15.1-33.3c0.6,0.8,0.8,1.5,0.6,2.3c-0.5-0.3-1.3-0.5-1.3-0.7c0.1-1.7-1.5-2.9-0.9-4.5
				C14.5-35.5,14.5-34.2,15.1-33.3z"/>
			<path fill="#231F20" d="M11.2-37.7c-0.2-1.7,1.1-0.3,1.5-0.8C12.2-38.2,11.7-37.9,11.2-37.7z"/>
			<path fill="#231F20" d="M24.8-36.2c-0.1,2.5,1.8,4,3.7,5.2c-0.6-0.8-1.4-1.3-2.3-1.4c-0.2,0-0.5,0.6-0.7,0.6
				c-0.5,0-1.3-0.4-1.3-0.7c-0.1-1.5-0.8-2.9,0.5-4.6c0.2-0.2-0.4-0.9-0.6-1.4c-0.5,0.3-1,0.5-1.5,0.8c-0.5-1-1-2-1.5-3
				c2.3,0.3,2.6,3,4.5,3.8C25.2-36.7,24.8-36.4,24.8-36.2z"/>
			<path fill="#231F20" d="M29.6-32.7c1.3,0.1,1.2-0.9,1.3-1.6c0-0.7-0.5-1,1.2-2.6c0.3-0.3,0.4-1.4,0.7-2.1
				c0.3,0.2,0.5,0.4,0.8,0.7c-0.5,0.3-1.2,0.5-1.3,0.9c-0.2,0.6,0.3,1.7,0,2.1c-0.6,0.7-1.8,1.1-1.8,2.6c0,0.2,0.7,0.5,0.6,0.6
				c-0.4,1.1-0.5,2-0.4,3.1C29.2-29.9,29.7-31.4,29.6-32.7z"/>
			<path fill="#231F20" d="M37-35.5c-1.3,1.6-2.9-0.1-3.8,1.9c1.3-0.5,0.5,0.4,3,0.8c-0.1-0.6-0.3-1.4-0.1-1.5
				c2.4-1.4,1.2-4.5,3-6.4c-0.3-0.1-0.7-0.2-1-0.2c0.1,0.6-0.7,2.9-0.9,3.1C35.4-36.8,38-36.9,37-35.5z"/>
			<path fill="#231F20" d="M31.6-26.6c-1.8-1.5-1.8,0.4-3.1,0.2c0.3-0.5,0.5-1,0.8-1.5c1.3,1.7,2.6-0.6,3.6,0.2
				C33.6-27.1,31.9-26.4,31.6-26.6z"/>
			<path fill="#231F20" d="M33.1-22.6c0,0.3-1,0.4-1.2,0.8c-1,2.2-0.3,2.8,0.7,4.4c-0.7,0.2-1.3-0.2-1.4-0.8
				c-0.2-1.3,0.6-1.2-0.7-2.4c-0.4-0.4,1.3-1.3,1.7-2.2c0.6-1.6,1.9-2.1,2.8-3.5c0.3-0.5,1.3,0.2,1.2,0.6
				C35.9-23.9,33.3-26.2,33.1-22.6z"/>
			<path fill="#231F20" d="M33.5-59.3c-0.4-0.3,0.3-0.9,0.9-1.2c0.6,1.5,3.2,0.4,3.2,2.1c0,0.6-0.9,1.2-1,2.1
				C35.2-57.3,35.1-58.2,33.5-59.3z"/>
			<path fill="#231F20" d="M39.8-26.8c0.8,1.6-1.2,1-1.5,1.8C37.2-26.9,40.1-25.5,39.8-26.8z"/>
			<path fill="#231F20" d="M41.6-26c0.5,0.2,1,0.5,1.5,0.7c0.2-0.5,0.8-1.1,0.6-1.4c-1-2.2,0.3-4.4,1-6.4c1,0.4,1.8,0,2.2-0.8
				c0.9-1.8,2.8-4.6,3-6.7c-0.6,0.1-1.4,0.1-1.5,0.4c-0.9,3.2-3.6,8.1-7.1,8.9c-0.1,0-0.2,0.6-0.1,0.9c0.3,0.8,1.5,0.9,1.8,1.4
				C43.4-27.9,42.3-26.9,41.6-26z"/>
			<path fill="#231F20" d="M39.9-35.4c0.1,0.5-0.3,1.1,0.2,1.6c0.9-2.2,0.9-4.6,3.3-6.3c-0.9-0.7-1.6,0.1-2.3,0.5
				C42.2-37.8,39.4-37.3,39.9-35.4z"/>
			<path fill="#231F20" d="M44.3-20.4c-0.6,1.2,1.5,2.9,2.1,2.7c0.8-0.2,2-0.8,1.6-2.8c3.1,0.2,6.8,3.3,4.3,5.8
				c-0.5,0.5-1.9-0.2-2.8-0.6c1.7-0.3,2.8-2.2,2.1-3.7c-0.3-0.6-1.2-0.9-2.1-0.8c-2,0.2-1.1,2-2.3,3c-0.4,0.4-1,0.7-1.5,0.7
				c-0.9-0.1-1.6-0.9-2.3-1.3c-0.3-0.2-1.1,0.3-1.3,0.7c-0.4,0.8-0.3,1.7,0.7,2.2c-1.3,0.3-1.5-0.9-1.3-1.5c0.3-1.4,2.8-1.2,2.8-3
				c0-1-0.7-1.9-2.2-2.3c3.3,0.7,2.5-2.9,4.9-3.7c1.5-0.5,0.8,0.8,0.6,1.4C47.1-22.1,45-21.7,44.3-20.4z"/>
			<path fill="#231F20" d="M49.3-29.6c-0.5,0.1-1,0.5-1.5,0.7c1.2-0.8,0.1-2.1,2.1-3.2c0.5-0.3,0.3-1.5-0.6-2
				c0.3-0.3,0.5-0.5,0.8-0.8c-0.3,1.8,0.4,3.5,0.8,5.2C50.2-29.7,49.7-29.8,49.3-29.6z"/>
			<path fill="#231F20" d="M54.7-32.9c0,0.5-0.4,1-0.7,1.5c-0.3-0.3-0.7-0.6-0.6-0.7c0.5-1,0.7-2,0.6-3.1
				C54.3-34.4,54.7-33.7,54.7-32.9z"/>
			<path fill="#231F20" d="M53.6-38.6c-1.3,0.3-1.4-0.8-1.4-1.5c0-0.5,0.8-1.1,1.3-0.7c0.5,0.5,0,1.7,2.3,1.4
				C55.1-39.1,54.4-38.8,53.6-38.6z"/>
			<path fill="#231F20" d="M57.6-38.2c-0.7,0.8-1,3-2,2C54.7-37.2,56.7-37.5,57.6-38.2z"/>
			<path fill="#231F20" d="M57.6-18.2c-0.2,0.9-0.5,2.8-2,2.1c-0.2-0.1-0.1-0.9-0.1-1.4c1.3,0.1,2.7-0.3,2.8-2.3
				c0-0.2-1.1-0.4-1.2-0.8c-0.1-0.7-1.1-1.5,1.4-2.2C57.5-21.3,57.9-19.7,57.6-18.2z"/>
			<path fill="#231F20" d="M10.9-57.9c-0.1,2.4-0.2,1.6-2.6,2.4c0.5-0.3,2-0.9,2.1-1.3c0.2-0.8-0.1-1.1,0.3-1.8
				c-0.2-0.8-1.5-0.7-0.8-1.8c1-1.5,0.2-3.7,2.1-4.5c0.4-0.2,0.2,0.5,0.7,0.5C12.8-62.4,11-60.1,10.9-57.9z"/>
			<path fill="#231F20" d="M59-33.1c0.3-3.9-0.5-6,3.6-4.5c0.9,1.3-1.8,0.2-2.1,0.8c-0.2,0.3,1.7,1.1,1.6,1.4
				C61.9-35,60-35,59.7-34.6c-0.4,0.7,0.3,1.5,0.7,2.2C59.9-32.7,59-32.9,59-33.1z"/>
			<path fill="#231F20" d="M57.4-28.7c-1.3-0.2-1.3,0.8-1.4,1.5c0,0.2,0.6,0.6,0.6,0.7c-0.7,1.6-2.4,0.5-3.6,0.8
				c0.5,0,1.2,0.2,1.4-0.1c0.9-1.4,2.8-3.6,0.9-5.2c1,1.2,3.2,0.4,3.8,2.2C58.4-28.7,57.9-28.6,57.4-28.7z"/>
			<path fill="#231F20" d="M53.8-21.7c-1.5,0.1-3.3,0.6-4.9,0.2c0.3-0.3,1.1-0.8,1.3-0.8c0.5,0,0.5,0.7,0.9,0.6
				c0.4-0.1,0.5-1.2,0.8-1.2c1.6-0.1,3-0.8,4.5-0.9c-0.3,0.5-0.4,1.2-0.8,1.4C55-22,54.6-21.7,53.8-21.7z"/>
			<path fill="#231F20" d="M60.8-25.3c-0.2,0.5-1-0.1-1.3-0.7c1.4-0.9-0.1-3.2,1.5-3.6c0.6-0.1,1.3,0.7,2.2,0.6
				C62.4-27.3,61.5-27,60.8-25.3z"/>
			<path fill="#231F20" d="M32-44.6c-1.3-0.2-1.3,0.8-1.4,1.5c0,0.2,0.6,0.6,0.6,0.7c-0.7,1.6-2.4,0.5-3.6,0.8
				c0.5,0,1.2,0.2,1.4-0.1c0.9-1.4,2.8-3.6,0.9-5.2c1,1.2,3.2,0.4,3.8,2.2C33-44.6,32.5-44.5,32-44.6z"/>
			<path fill="#231F20" d="M27-36.6c0.5-1.5,1.8-1.3,3-1.5C29.3-37,28.1-36.9,27-36.6z"/>
			<path fill="#231F20" d="M12.9-40.6c-0.1,0.1-0.5-0.4-0.7-0.6c0.8-0.4,1.3-2.1,2.1-1.3C15-41.8,13.7-40.3,12.9-40.6z"/>
			<path fill="#231F20" d="M12.8-28.3c0.5-1.1,1.4-0.7,2.2-0.8C14.5-28.1,13.6-28.2,12.8-28.3z"/>
			<path fill="#231F20" d="M37.8-28.7c-0.5,0.5-0.4,0.6-0.7,0.7c-0.8,0.3-1.5-0.3-2.2-0.7c2.6,0.5,3.6-1.5,3-3.8
				c0.5,0.3,1.3,0.5,1.3,0.8C39.2-30.7,38.4-29.7,37.8-28.7z"/>
			<path fill="#231F20" d="M50.7-61c-0.5,0.5-0.4,0.6-0.7,0.7c-0.8,0.3-1.5-0.3-2.2-0.7c2.6,0.5,3.6-1.5,3-3.8
				c0.5,0.3,1.3,0.5,1.3,0.8C52.1-63,51.3-62,50.7-61z"/>
			<path fill="#231F20" d="M26.2-27.6c0.2-0.9-0.3-1.6-0.8-2.2c0.7-0.2,1.3,0.2,1.4,0.8C26.9-28.5,26.5-28.1,26.2-27.6z"/>
			<path fill="#231F20" d="M21.9-66c0.2-0.9-0.3-1.6-0.8-2.2c0.7-0.2,1.3,0.2,1.4,0.8C22.6-66.9,22.2-66.5,21.9-66z"/>
			<path fill="#231F20" d="M9-30c0.5-1.5,1.8-1.3,3-1.5C11.3-30.5,10.1-30.3,9-30z"/>
			<path fill="#231F20" d="M12.8-66.2c-1.8-0.2-0.2-1.6-0.8-2.2C14.2-68.3,11.4-66.6,12.8-66.2z"/>
			<path fill="#231F20" d="M65.1-45c-0.1,0.9-1.8,1.1-1.8,1.6c-0.2,1.9-0.9,2.2-1.8,3.7c-0.3-0.3-0.7-0.5-0.7-0.8
				c0-1,1.5-1.6,1.8-2.4c0.9-2.4,0.7-6.2,1.3-7.2c0.2,0.1,1.4-1.2,1.8-1.6L65.1-45z"/>
			<path fill="#231F20" d="M24.1-65.1c1.7-1.2,2.3-4.9,4.1-5.7c-1.5,1.2-1.7,4.9-2.9,6.2c-2.3,2.5-5.6,3.8-7.3,6.9
				c-0.6,1.1,0.7,2.7-0.8,3.7c-0.3-2.4-0.2-5,1.7-6.6C20.9-62.1,22.1-63.6,24.1-65.1z"/>
			<path fill="#231F20" d="M44.5-66.1c-0.7,0.8-1,3-2,2C41.5-65,43.6-65.4,44.5-66.1z"/>
			<path fill="#231F20" d="M47-65.6c-0.4,0.5-1.2-0.1-1.3-0.7c-0.2-1-1.2-2.6-0.1-3c0.9,0.8,1.9,0.8,3,0.8
				C46-68.5,47.7-66.4,47-65.6z"/>
			<path fill="#231F20" d="M54.5-64.9c0.2,0.3,0.7-0.1,1-0.4c-1.1-0.6,0.1-2.2-1.2-2.4c-0.5-0.1-1,0.5-1.7,0.4
				C53.1-66.2,53.9-66,54.5-64.9z"/>
			<path fill="#231F20" d="M31.2-54.3c0.5-1.5,1.8-1.3,3-1.5C33.5-54.8,32.4-54.6,31.2-54.3z"/>
			<path fill="#231F20" d="M61.5-51.6c0.5-1.1,1.4-0.7,2.2-0.8C63.2-51.4,62.4-51.4,61.5-51.6z"/>
			<path fill="#231F20" d="M66-16.7c-0.8-0.1-2.2,0.3-2.1-0.7c0.1-1,1-2,0.5-3c-0.2-0.4-0.9-0.5-1.4-0.8c-0.8,2.3-3.3,3.4-3.8,6
				c-0.1,0.8-0.5,2.1-1.3,1.3c-0.8-0.8,1.1-1,1.1-1.3c0.2-2.9,1.9-4.9,3.8-6.9c0.4-0.4-0.1-1.7,0.9-2c0.8-0.3,1.7,0.7,2.1,0.5
				l-0.1,0.3c-0.8,0.5-1.5,1.1-1.8,2.2c-0.2,0.6,1.1,1.3,2,1.3L66-16.7z"/>
			<path fill="#231F20" d="M37.2-60.8c0.2-0.9-0.3-1.6-0.8-2.2c0.7-0.2,1.3,0.2,1.4,0.8C37.9-61.8,37.5-61.3,37.2-60.8z"/>
			<path fill="#231F20" d="M34.7-44.4c1.7,0,0.1,1.1,0.5,1.6C35.1-43.3,34.9-43.9,34.7-44.4z"/>
			<path fill="#231F20" d="M60.8-45.6c0.2-0.9-0.3-1.6-0.8-2.2c0.7-0.2,1.3,0.2,1.4,0.8C61.4-46.5,61-46.1,60.8-45.6z"/>
			<path fill="#231F20" d="M54.2-59.8c0-0.9,0.6-1.5,1.1-2.1c-0.7-0.3-1.4,0-1.5,0.6C53.7-60.8,54.1-60.3,54.2-59.8z"/>
			<path fill="#231F20" d="M19.8-64.4c0.8,1.6-1.2,1-1.5,1.8C17.2-64.5,20.1-63.1,19.8-64.4z"/>
			<path fill="#231F20" d="M46-58.3c-1.6,0.2-0.7-0.9-0.8-1.5C45.5-59.3,45.7-58.8,46-58.3z"/>
			<path fill="#231F20" d="M36.5-17c1.3-0.3,0.9-1.3,0.7-2c-0.1-0.2-0.8-0.3-0.8-0.4c0.1-1.7,2-1.4,3-2.2c-0.5,0.2-1.2,0.3-1.2,0.6
				c-0.3,1.6-1.2,4.4,1.2,5.1c-1.4-0.8-3.1,0.9-4.3-0.6C35.6-16.6,36-16.8,36.5-17z"/>
			<path fill="#231F20" d="M21.8-42.8c-1.6,0.2-0.7-0.9-0.8-1.5C21.3-43.8,21.5-43.3,21.8-42.8z"/>
			<path fill="#231F20" d="M24-48.3c0.5-1.1,1.4-0.7,2.2-0.8C25.7-48.1,24.9-48.2,24-48.3z"/>
			<path fill="#231F20" d="M45.5-36.8c-1.6,0.2-0.7-0.9-0.8-1.5C45-37.8,45.2-37.3,45.5-36.8z"/>
			<path fill="#231F20" d="M41-22.3c0.1-0.6-0.3-1-0.6-1.5c0.6-0.1,1.1,0.1,1.1,0.5C41.5-22.9,41.2-22.6,41-22.3z"/>
			<path fill="#231F20" d="M35.6-22.1c-0.5,4.3-0.6,0-0.8,0c0.7-0.3,1.8-0.2,1.5-1.5C36-23.1,35.6-22.6,35.6-22.1z"/>
			<path fill="#231F20" d="M20.1-28.1c2.5-0.8,0.3-1.4,3.2-2c1.2,0.6,1.2,2.3,1,3.7c0,0.3-0.7,1.3-0.8,1.8c-0.1-0.5-0.3-1.1-0.4-1.6
				c-0.1-0.6-0.1-1.8-0.2-1.9C21.5-28.7,20.1-28.1,20.1-28.1z"/>
			<path fill="#231F20" d="M20.8-21.6c0.3,1.3,1.4,0.8,2,0.5c0.5-0.3,0.6-1.3-0.1-1.5c-0.7-0.2-1.5,0.8-2.4-1.3
				C20.5-23.1,20.6-22.4,20.8-21.6z"/>
		</g>
		<g>
			<path fill="#231F20" d="M5.2-62.2c0.2,0.7-0.2,1.3-0.8,1.4c-0.9,0.1-2,0.4-2,0.9c-0.1,1.6-1.2,2.6-2.5,3c1.2-2.3,2.9-3.8,5.2-5.4
				c0.2-0.2-0.1-0.9,0.1-1.3C6-65,8-63.6,8.2-66c0-0.2-0.4-0.5-0.7-0.7c2.1,0.6,1.9-2.1,3.8-2.2c0,0.5,0,1,0,1.5
				c-0.9-0.2-1.5,0.4-2.3,0.7C6.7-65.6,9.1-62.7,5.2-62.2z"/>
			<path fill="#231F20" d="M11.1-45c-0.1,0.9-1.8,1.1-1.8,1.6c-0.2,1.9-0.9,2.2-1.8,3.7c-0.3-0.3-0.7-0.5-0.7-0.8
				c0-1,1.5-1.6,1.8-2.4c0.9-2.4,0.7-6.2,1.3-7.2c0.2,0.1,1.4-1.2,1.8-1.6L11.1-45z"/>
			<path fill="#231F20" d="M12-16.7c-0.8-0.1-2.2,0.3-2.1-0.7c0.1-1,1-2,0.5-3c-0.2-0.4-0.9-0.5-1.4-0.8c-0.8,2.3-3.3,3.4-3.8,6
				c-0.1,0.8-0.5,2.1-1.3,1.3c-0.8-0.8,1.1-1,1.1-1.3c0.2-2.9,1.9-4.9,3.8-6.9c0.4-0.4-0.1-1.7,0.9-2c0.8-0.3,1.7,0.7,2.1,0.5
				l-0.1,0.3c-0.8,0.5-1.5,1.1-1.8,2.2c-0.2,0.6,1.1,1.3,2,1.3L12-16.7z"/>
		</g>
	</g>
</pattern>
<g>
	<g>
		<polyline fill="#E5E5E5" points="4,434 254.1,0.9 504.2,434 4,434 		"/>
		<polygon fill="#E5E5E5" points="215.4,119 232.8,88.8 250.2,119 		"/>
		<polygon fill="#E5E5E5" points="250.2,119 232.8,149.2 215.4,119 		"/>
		<polygon fill="#E5E5E5" points="252.8,119 270.2,88.8 287.6,119 		"/>
		<polygon fill="#E5E5E5" points="287.6,119 270.2,149.2 252.8,119 		"/>
		<polygon fill="#E5E5E5" points="196.7,151 214.1,120.8 231.5,151 		"/>
		<polygon fill="#E5E5E5" points="234.1,151 251.5,120.8 268.9,151 		"/>
		<polygon fill="#E5E5E5" points="268.9,88 251.5,118.2 234.1,88 		"/>
		<polygon fill="#E5E5E5" points="234.1,87 251.5,56.8 268.9,87 		"/>
		<polygon fill="#E5E5E5" points="271.5,151 288.9,120.8 306.3,151 		"/>
		<polygon fill="#E5E5E5" points="231.5,152 214.1,182.2 196.7,152 		"/>
		<polygon fill="#E5E5E5" points="268.9,152 251.5,182.2 234.1,152 		"/>
		<polygon fill="#E5E5E5" points="306.3,152 288.9,182.2 271.5,152 		"/>
	</g>
	<g>
		<g>
			<polygon fill="#7AB5D6" points="178,374 195.4,343.8 212.9,374 			"/>
			<polygon fill="#7AB5D6" points="122,341 139.4,310.8 156.8,341 			"/>
			<polygon fill="#7AB5D6" points="306.3,342 288.9,372.2 271.5,342 			"/>
			<polygon fill="#7AB5D6" points="212.9,183 195.4,213.2 178,183 			"/>
			<polygon fill="#7AB5D6" points="287.6,183 270.2,213.2 252.8,183 			"/>
			<polygon fill="#7AB5D6" points="362.4,311 345,341.2 327.6,311 			"/>
			<polygon fill="#7AB5D6" points="343.7,279 326.3,309.2 308.9,279 			"/>
			<polygon fill="#7AB5D6" points="290.2,246 307.6,215.8 325,246 			"/>
			<polygon fill="#7AB5D6" points="418.4,342 401,372.2 383.6,342 			"/>
			<polygon fill="#7AB5D6" points="121.5,406 138.9,375.8 156.3,406 			"/>
			<polygon fill="#7AB5D6" points="287.2,375 269.7,405.2 252.3,375 			"/>
			<polygon fill="#7AB5D6" points="399.3,375 381.9,405.2 364.4,375 			"/>
			<polygon fill="#7AB5D6" points="234.1,278 251.5,247.8 268.9,278 			"/>
			<polygon fill="#7AB5D6" points="159.3,278 176.8,247.8 194.2,278 			"/>
			<polygon fill="#7AB5D6" points="231.5,215 214.1,245.2 196.7,215 			"/>
			<polygon fill="#7AB5D6" points="250.2,311 232.8,341.2 215.4,311 			"/>
			<polygon fill="#399FD3" points="194.2,215 176.8,245.2 159.3,215 			"/>
			<polygon fill="#399FD3" points="194.2,342 176.8,372.2 159.3,342 			"/>
			<polygon fill="#399FD3" points="231.5,342 214.1,372.2 196.7,342 			"/>
			<polygon fill="#399FD3" points="268.9,342 251.5,372.2 234.1,342 			"/>
			<polygon fill="#399FD3" points="215.4,374 232.8,343.8 250.2,374 			"/>
			<polygon fill="#399FD3" points="65.9,374 83.3,343.8 100.7,374 			"/>
			<polygon fill="#399FD3" points="140.7,374 158.1,343.8 175.5,374 			"/>
			<polygon fill="#399FD3" points="119.4,342 102,372.2 84.6,342 			"/>
			<polygon fill="#399FD3" points="156.8,342 139.4,372.2 122,342 			"/>
			<polygon fill="#399FD3" points="103.3,374 120.7,343.8 138.1,374 			"/>
			<polygon fill="#399FD3" points="84.6,341 102,310.8 119.4,341 			"/>
			<polygon fill="#399FD3" points="138.1,311 120.7,341.2 103.3,311 			"/>
			<polygon fill="#399FD3" points="175.5,311 158.1,341.2 140.7,311 			"/>
			<polygon fill="#399FD3" points="103.3,309 120.7,278.8 138.1,309 			"/>
			<polygon fill="#399FD3" points="156.8,279 139.4,309.2 122,279 			"/>
			<polygon fill="#399FD3" points="140.7,309 158.1,278.8 175.5,309 			"/>
			<polygon fill="#399FD3" points="175.5,247 158.1,277.2 140.7,247 			"/>
			<polygon fill="#399FD3" points="122,278 139.4,247.8 156.8,278 			"/>
			<polygon fill="#399FD3" points="140.7,246 158.1,215.8 175.5,246 			"/>
			<polygon fill="#399FD3" points="364.9,374 382.4,343.8 399.8,374 			"/>
			<polygon fill="#399FD3" points="381.1,342 363.7,372.2 346.2,342 			"/>
			<polygon fill="#399FD3" points="252.8,374 270.2,343.8 287.6,374 			"/>
			<polygon fill="#399FD3" points="327.6,374 345,343.8 362.4,374 			"/>
			<polygon fill="#399FD3" points="343.7,342 326.3,372.2 308.9,342 			"/>
			<polygon fill="#399FD3" points="290.2,374 307.6,343.8 325,374 			"/>
			<polygon fill="#399FD3" points="196.7,214 214.1,183.8 231.5,214 			"/>
			<polygon fill="#399FD3" points="250.2,183 232.8,213.2 215.4,183 			"/>
			<polygon fill="#399FD3" points="234.1,214 251.5,183.8 268.9,214 			"/>
			<polygon fill="#399FD3" points="159.3,214 176.8,183.8 194.2,214 			"/>
			<polygon fill="#399FD3" points="215.4,182 232.8,151.8 250.2,182 			"/>
			<polygon fill="#399FD3" points="252.8,182 270.2,151.8 287.6,182 			"/>
			<polygon fill="#399FD3" points="178,182 195.4,151.8 212.9,182 			"/>
			<polygon fill="#399FD3" points="271.5,214 288.9,183.8 306.3,214 			"/>
			<polygon fill="#399FD3" points="159.3,341 176.8,310.8 194.2,341 			"/>
			<polygon fill="#399FD3" points="325,311 307.6,341.2 290.2,311 			"/>
			<polygon fill="#399FD3" points="308.9,341 326.3,310.8 343.7,341 			"/>
			<polygon fill="#399FD3" points="271.5,341 288.9,310.8 306.3,341 			"/>
			<polygon fill="#399FD3" points="346.2,341 363.7,310.8 381.1,341 			"/>
			<polygon fill="#399FD3" points="306.3,279 288.9,309.2 271.5,279 			"/>
			<polygon fill="#399FD3" points="327.6,309 345,278.8 362.4,309 			"/>
			<polygon fill="#399FD3" points="290.2,309 307.6,278.8 325,309 			"/>
			<polygon fill="#399FD3" points="325,247 307.6,277.2 290.2,247 			"/>
			<polygon fill="#399FD3" points="215.4,309 232.8,278.8 250.2,309 			"/>
			<polygon fill="#399FD3" points="250.2,247 232.8,277.2 215.4,247 			"/>
			<polygon fill="#399FD3" points="308.9,278 326.3,247.8 343.7,278 			"/>
			<polygon fill="#399FD3" points="306.3,215 288.9,245.2 271.5,215 			"/>
			<polygon fill="#399FD3" points="402.3,374 419.7,343.8 437.1,374 			"/>
			<polygon fill="#399FD3" points="158.9,406 176.3,375.8 193.7,406 			"/>
			<polygon fill="#399FD3" points="175,375 157.6,405.2 140.2,375 			"/>
			<polygon fill="#399FD3" points="212.4,375 195,405.2 177.6,375 			"/>
			<polygon fill="#399FD3" points="249.8,375 232.4,405.2 215,375 			"/>
			<polygon fill="#399FD3" points="196.3,406 213.7,375.8 231.1,406 			"/>
			<polygon fill="#399FD3" points="46.7,406 64.1,375.8 81.6,406 			"/>
			<polygon fill="#399FD3" points="100.2,375 82.8,405.2 65.4,375 			"/>
			<polygon fill="#399FD3" points="137.6,375 120.2,405.2 102.8,375 			"/>
			<polygon fill="#399FD3" points="84.1,406 101.5,375.8 118.9,406 			"/>
			<polygon fill="#399FD3" points="345.8,406 363.2,375.8 380.6,406 			"/>
			<polygon fill="#399FD3" points="361.9,375 344.5,405.2 327.1,375 			"/>
			<polygon fill="#399FD3" points="233.6,406 251.1,375.8 268.5,406 			"/>
			<polygon fill="#399FD3" points="308.4,406 325.8,375.8 343.2,406 			"/>
			<polygon fill="#399FD3" points="324.5,375 307.1,405.2 289.7,375 			"/>
			<polygon fill="#399FD3" points="271,406 288.4,375.8 305.8,406 			"/>
			<polygon fill="#399FD3" points="383.1,406 400.5,375.8 418,406 			"/>
			<polygon fill="#399FD3" points="421,406 438.4,375.8 455.8,406 			"/>
			<polygon fill="#399FD3" points="437.1,375 419.7,405.2 402.3,375 			"/>
			<polygon fill="#399FD3" points="325,183 307.6,213.2 290.1,183 			"/>
			<polygon fill="#399FD3" points="290.1,182 307.6,151.8 325,182 			"/>
			<polygon fill="#399FD3" points="308.8,214 326.2,183.8 343.7,214 			"/>
			<polygon fill="#399FD3" points="399.7,311 382.3,341.2 364.9,311 			"/>
			<polygon fill="#399FD3" points="383.6,341 401,310.8 418.4,341 			"/>
			<polygon fill="#399FD3" points="381,279 363.6,309.2 346.2,279 			"/>
			<polygon fill="#399FD3" points="364.9,309 382.3,278.8 399.7,309 			"/>
			<polygon fill="#399FD3" points="362.3,247 344.9,277.2 327.5,247 			"/>
			<polygon fill="#399FD3" points="346.2,278 363.6,247.8 381,278 			"/>
			<polygon fill="#399FD3" points="343.7,215 326.2,245.2 308.8,215 			"/>
			<polygon fill="#399FD3" points="327.5,246 344.9,215.8 362.3,246 			"/>
			<polygon fill="#399FD3" points="271.5,278 288.9,247.8 306.3,278 			"/>
			<polygon fill="#399FD3" points="178,246 195.4,215.8 212.9,246 			"/>
			<polygon fill="#399FD3" points="212.9,247 195.4,277.2 178,247 			"/>
			<polygon fill="#399FD3" points="268.9,279 251.5,309.2 234.1,279 			"/>
			<polygon fill="#399FD3" points="287.6,247 270.2,277.2 252.8,247 			"/>
			<polygon fill="#399FD3" points="196.7,278 214.1,247.8 231.5,278 			"/>
			<polygon fill="#399FD3" points="268.9,215 251.5,245.2 234.1,215 			"/>
			<polygon fill="#399FD3" points="215.4,246 232.8,215.8 250.2,246 			"/>
			<polygon fill="#399FD3" points="252.8,246 270.2,215.8 287.6,246 			"/>
			<polygon fill="#399FD3" points="178,309 195.4,278.8 212.9,309 			"/>
			<polygon fill="#399FD3" points="252.8,309 270.2,278.8 287.6,309 			"/>
			<polygon fill="#399FD3" points="212.9,311 195.4,341.2 178,311 			"/>
			<polygon fill="#399FD3" points="287.6,311 270.2,341.2 252.8,311 			"/>
			<polygon fill="#399FD3" points="196.7,341 214.1,310.8 231.5,341 			"/>
			<polygon fill="#399FD3" points="234.1,341 251.5,310.8 268.9,341 			"/>
			<polygon fill="#399FD3" points="194.2,279 176.8,309.2 159.3,279 			"/>
			<polygon fill="#399FD3" points="231.5,279 214.1,309.2 196.7,279 			"/>
		</g>
		<g opacity="0.4">
			<polygon fill="url(#USGS_21_Intricate_Surface)" points="178,374 195.4,343.8 212.9,374 			"/>
			<polygon fill="url(#USGS_21_Intricate_Surface)" points="122,341 139.4,310.8 156.8,341 			"/>
			<polygon fill="url(#USGS_21_Intricate_Surface)" points="306.3,342 288.9,372.2 271.5,342 			"/>
			<polygon fill="url(#USGS_21_Intricate_Surface)" points="212.9,183 195.4,213.2 178,183 			"/>
			<polygon fill="url(#USGS_21_Intricate_Surface)" points="287.6,183 270.2,213.2 252.8,183 			"/>
			<polygon fill="url(#USGS_21_Intricate_Surface)" points="362.4,311 345,341.2 327.6,311 			"/>
			<polygon fill="url(#USGS_21_Intricate_Surface)" points="343.7,279 326.3,309.2 308.9,279 			"/>
			<polygon fill="url(#USGS_21_Intricate_Surface)" points="290.2,246 307.6,215.8 325,246 			"/>
			<polygon fill="url(#USGS_21_Intricate_Surface)" points="418.4,342 401,372.2 383.6,342 			"/>
			<polygon fill="url(#USGS_21_Intricate_Surface)" points="121.5,406 138.9,375.8 156.3,406 			"/>
			<polygon fill="url(#USGS_21_Intricate_Surface)" points="287.2,375 269.7,405.2 252.3,375 			"/>
			<polygon fill="url(#USGS_21_Intricate_Surface)" points="399.3,375 381.9,405.2 364.4,375 			"/>
			<polygon fill="url(#USGS_21_Intricate_Surface)" points="234.1,278 251.5,247.8 268.9,278 			"/>
			<polygon fill="url(#USGS_21_Intricate_Surface)" points="159.3,278 176.8,247.8 194.2,278 			"/>
			<polygon fill="url(#USGS_21_Intricate_Surface)" points="231.5,215 214.1,245.2 196.7,215 			"/>
			<polygon fill="url(#USGS_21_Intricate_Surface)" points="250.2,311 232.8,341.2 215.4,311 			"/>
			<polygon fill="url(#USGS_21_Intricate_Surface)" points="194.2,215 176.8,245.2 159.3,215 			"/>
			<polygon fill="url(#USGS_21_Intricate_Surface)" points="194.2,342 176.8,372.2 159.3,342 			"/>
			<polygon fill="url(#USGS_21_Intricate_Surface)" points="231.5,342 214.1,372.2 196.7,342 			"/>
			<polygon fill="url(#USGS_21_Intricate_Surface)" points="268.9,342 251.5,372.2 234.1,342 			"/>
			<polygon fill="url(#USGS_21_Intricate_Surface)" points="215.4,374 232.8,343.8 250.2,374 			"/>
			<polygon fill="url(#USGS_21_Intricate_Surface)" points="65.9,374 83.3,343.8 100.7,374 			"/>
			<polygon fill="url(#USGS_21_Intricate_Surface)" points="140.7,374 158.1,343.8 175.5,374 			"/>
			<polygon fill="url(#USGS_21_Intricate_Surface)" points="119.4,342 102,372.2 84.6,342 			"/>
			<polygon fill="url(#USGS_21_Intricate_Surface)" points="156.8,342 139.4,372.2 122,342 			"/>
			<polygon fill="url(#USGS_21_Intricate_Surface)" points="103.3,374 120.7,343.8 138.1,374 			"/>
			<polygon fill="url(#USGS_21_Intricate_Surface)" points="84.6,341 102,310.8 119.4,341 			"/>
			<polygon fill="url(#USGS_21_Intricate_Surface)" points="138.1,311 120.7,341.2 103.3,311 			"/>
			<polygon fill="url(#USGS_21_Intricate_Surface)" points="175.5,311 158.1,341.2 140.7,311 			"/>
			<polygon fill="url(#USGS_21_Intricate_Surface)" points="103.3,309 120.7,278.8 138.1,309 			"/>
			<polygon fill="url(#USGS_21_Intricate_Surface)" points="156.8,279 139.4,309.2 122,279 			"/>
			<polygon fill="url(#USGS_21_Intricate_Surface)" points="140.7,309 158.1,278.8 175.5,309 			"/>
			<polygon fill="url(#USGS_21_Intricate_Surface)" points="175.5,247 158.1,277.2 140.7,247 			"/>
			<polygon fill="url(#USGS_21_Intricate_Surface)" points="122,278 139.4,247.8 156.8,278 			"/>
			<polygon fill="url(#USGS_21_Intricate_Surface)" points="140.7,246 158.1,215.8 175.5,246 			"/>
			<polygon fill="url(#USGS_21_Intricate_Surface)" points="364.9,374 382.4,343.8 399.8,374 			"/>
			<polygon fill="url(#USGS_21_Intricate_Surface)" points="381.1,342 363.7,372.2 346.2,342 			"/>
			<polygon fill="url(#USGS_21_Intricate_Surface)" points="252.8,374 270.2,343.8 287.6,374 			"/>
			<polygon fill="url(#USGS_21_Intricate_Surface)" points="327.6,374 345,343.8 362.4,374 			"/>
			<polygon fill="url(#USGS_21_Intricate_Surface)" points="343.7,342 326.3,372.2 308.9,342 			"/>
			<polygon fill="url(#USGS_21_Intricate_Surface)" points="290.2,374 307.6,343.8 325,374 			"/>
			<polygon fill="url(#USGS_21_Intricate_Surface)" points="196.7,214 214.1,183.8 231.5,214 			"/>
			<polygon fill="url(#USGS_21_Intricate_Surface)" points="250.2,183 232.8,213.2 215.4,183 			"/>
			<polygon fill="url(#USGS_21_Intricate_Surface)" points="234.1,214 251.5,183.8 268.9,214 			"/>
			<polygon fill="url(#USGS_21_Intricate_Surface)" points="159.3,214 176.8,183.8 194.2,214 			"/>
			<polygon fill="url(#USGS_21_Intricate_Surface)" points="215.4,182 232.8,151.8 250.2,182 			"/>
			<polygon fill="url(#USGS_21_Intricate_Surface)" points="252.8,182 270.2,151.8 287.6,182 			"/>
			<polygon fill="url(#USGS_21_Intricate_Surface)" points="178,182 195.4,151.8 212.9,182 			"/>
			<polygon fill="url(#USGS_21_Intricate_Surface)" points="271.5,214 288.9,183.8 306.3,214 			"/>
			<polygon fill="url(#USGS_21_Intricate_Surface)" points="159.3,341 176.8,310.8 194.2,341 			"/>
			<polygon fill="url(#USGS_21_Intricate_Surface)" points="325,311 307.6,341.2 290.2,311 			"/>
			<polygon fill="url(#USGS_21_Intricate_Surface)" points="308.9,341 326.3,310.8 343.7,341 			"/>
			<polygon fill="url(#USGS_21_Intricate_Surface)" points="271.5,341 288.9,310.8 306.3,341 			"/>
			<polygon fill="url(#USGS_21_Intricate_Surface)" points="346.2,341 363.7,310.8 381.1,341 			"/>
			<polygon fill="url(#USGS_21_Intricate_Surface)" points="306.3,279 288.9,309.2 271.5,279 			"/>
			<polygon fill="url(#USGS_21_Intricate_Surface)" points="327.6,309 345,278.8 362.4,309 			"/>
			<polygon fill="url(#USGS_21_Intricate_Surface)" points="290.2,309 307.6,278.8 325,309 			"/>
			<polygon fill="url(#USGS_21_Intricate_Surface)" points="325,247 307.6,277.2 290.2,247 			"/>
			<polygon fill="url(#USGS_21_Intricate_Surface)" points="215.4,309 232.8,278.8 250.2,309 			"/>
			<polygon fill="url(#USGS_21_Intricate_Surface)" points="250.2,247 232.8,277.2 215.4,247 			"/>
			<polygon fill="url(#USGS_21_Intricate_Surface)" points="308.9,278 326.3,247.8 343.7,278 			"/>
			<polygon fill="url(#USGS_21_Intricate_Surface)" points="306.3,215 288.9,245.2 271.5,215 			"/>
			<polygon fill="url(#USGS_21_Intricate_Surface)" points="402.3,374 419.7,343.8 437.1,374 			"/>
			<polygon fill="url(#USGS_21_Intricate_Surface)" points="158.9,406 176.3,375.8 193.7,406 			"/>
			<polygon fill="url(#USGS_21_Intricate_Surface)" points="175,375 157.6,405.2 140.2,375 			"/>
			<polygon fill="url(#USGS_21_Intricate_Surface)" points="212.4,375 195,405.2 177.6,375 			"/>
			<polygon fill="url(#USGS_21_Intricate_Surface)" points="249.8,375 232.4,405.2 215,375 			"/>
			<polygon fill="url(#USGS_21_Intricate_Surface)" points="196.3,406 213.7,375.8 231.1,406 			"/>
			<polygon fill="url(#USGS_21_Intricate_Surface)" points="46.7,406 64.1,375.8 81.6,406 			"/>
			<polygon fill="url(#USGS_21_Intricate_Surface)" points="100.2,375 82.8,405.2 65.4,375 			"/>
			<polygon fill="url(#USGS_21_Intricate_Surface)" points="137.6,375 120.2,405.2 102.8,375 			"/>
			<polygon fill="url(#USGS_21_Intricate_Surface)" points="84.1,406 101.5,375.8 118.9,406 			"/>
			<polygon fill="url(#USGS_21_Intricate_Surface)" points="345.8,406 363.2,375.8 380.6,406 			"/>
			<polygon fill="url(#USGS_21_Intricate_Surface)" points="361.9,375 344.5,405.2 327.1,375 			"/>
			<polygon fill="url(#USGS_21_Intricate_Surface)" points="233.6,406 251.1,375.8 268.5,406 			"/>
			<polygon fill="url(#USGS_21_Intricate_Surface)" points="308.4,406 325.8,375.8 343.2,406 			"/>
			<polygon fill="url(#USGS_21_Intricate_Surface)" points="324.5,375 307.1,405.2 289.7,375 			"/>
			<polygon fill="url(#USGS_21_Intricate_Surface)" points="271,406 288.4,375.8 305.8,406 			"/>
			<polygon fill="url(#USGS_21_Intricate_Surface)" points="383.1,406 400.5,375.8 418,406 			"/>
			<polygon fill="url(#USGS_21_Intricate_Surface)" points="421,406 438.4,375.8 455.8,406 			"/>
			<polygon fill="url(#USGS_21_Intricate_Surface)" points="437.1,375 419.7,405.2 402.3,375 			"/>
			<polygon fill="url(#USGS_21_Intricate_Surface)" points="325,183 307.6,213.2 290.1,183 			"/>
			<polygon fill="url(#USGS_21_Intricate_Surface)" points="290.1,182 307.6,151.8 325,182 			"/>
			<polygon fill="url(#USGS_21_Intricate_Surface)" points="308.8,214 326.2,183.8 343.7,214 			"/>
			<polygon fill="url(#USGS_21_Intricate_Surface)" points="399.7,311 382.3,341.2 364.9,311 			"/>
			<polygon fill="url(#USGS_21_Intricate_Surface)" points="383.6,341 401,310.8 418.4,341 			"/>
			<polygon fill="url(#USGS_21_Intricate_Surface)" points="381,279 363.6,309.2 346.2,279 			"/>
			<polygon fill="url(#USGS_21_Intricate_Surface)" points="364.9,309 382.3,278.8 399.7,309 			"/>
			<polygon fill="url(#USGS_21_Intricate_Surface)" points="362.3,247 344.9,277.2 327.5,247 			"/>
			<polygon fill="url(#USGS_21_Intricate_Surface)" points="346.2,278 363.6,247.8 381,278 			"/>
			<polygon fill="url(#USGS_21_Intricate_Surface)" points="343.7,215 326.2,245.2 308.8,215 			"/>
			<polygon fill="url(#USGS_21_Intricate_Surface)" points="327.5,246 344.9,215.8 362.3,246 			"/>
			<polygon fill="url(#USGS_21_Intricate_Surface)" points="271.5,278 288.9,247.8 306.3,278 			"/>
			<polygon fill="url(#USGS_21_Intricate_Surface)" points="178,246 195.4,215.8 212.9,246 			"/>
			<polygon fill="url(#USGS_21_Intricate_Surface)" points="212.9,247 195.4,277.2 178,247 			"/>
			<polygon fill="url(#USGS_21_Intricate_Surface)" points="268.9,279 251.5,309.2 234.1,279 			"/>
			<polygon fill="url(#USGS_21_Intricate_Surface)" points="287.6,247 270.2,277.2 252.8,247 			"/>
			<polygon fill="url(#USGS_21_Intricate_Surface)" points="196.7,278 214.1,247.8 231.5,278 			"/>
			<polygon fill="url(#USGS_21_Intricate_Surface)" points="268.9,215 251.5,245.2 234.1,215 			"/>
			<polygon fill="url(#USGS_21_Intricate_Surface)" points="215.4,246 232.8,215.8 250.2,246 			"/>
			<polygon fill="url(#USGS_21_Intricate_Surface)" points="252.8,246 270.2,215.8 287.6,246 			"/>
			<polygon fill="url(#USGS_21_Intricate_Surface)" points="178,309 195.4,278.8 212.9,309 			"/>
			<polygon fill="url(#USGS_21_Intricate_Surface)" points="252.8,309 270.2,278.8 287.6,309 			"/>
			<polygon fill="url(#USGS_21_Intricate_Surface)" points="212.9,311 195.4,341.2 178,311 			"/>
			<polygon fill="url(#USGS_21_Intricate_Surface)" points="287.6,311 270.2,341.2 252.8,311 			"/>
			<polygon fill="url(#USGS_21_Intricate_Surface)" points="196.7,341 214.1,310.8 231.5,341 			"/>
			<polygon fill="url(#USGS_21_Intricate_Surface)" points="234.1,341 251.5,310.8 268.9,341 			"/>
			<polygon fill="url(#USGS_21_Intricate_Surface)" points="194.2,279 176.8,309.2 159.3,279 			"/>
			<polygon fill="url(#USGS_21_Intricate_Surface)" points="231.5,279 214.1,309.2 196.7,279 			"/>
		</g>
	</g>
</g>
</svg>
