<?xml version="1.0" encoding="utf-8"?>
<!-- Generator: Adobe Illustrator 17.1.0, SVG Export Plug-In . SVG Version: 6.00 Build 0)  -->
<!DOCTYPE svg PUBLIC "-//W3C//DTD SVG 1.1//EN" "http://www.w3.org/Graphics/SVG/1.1/DTD/svg11.dtd">
<svg version="1.1" id="Layer_1" xmlns="http://www.w3.org/2000/svg" xmlns:xlink="http://www.w3.org/1999/xlink" x="0px" y="0px"
	 viewBox="0 0 155 48" enable-background="new 0 0 155 48" xml:space="preserve">
<g>
	<path fill="#FFFFFF" d="M138.7,26.8h-7.4l3.7-8.5L138.7,26.8z M150.9,38.9L138.2,9.5h-6.4l-12.7,29.4h7l2.7-6.4h12.3l2.7,6.4H150.9
		z M123.4,15.2V9.5h-23.2v5.7h8.3v23.8h6.6V15.2H123.4z M76.7,9.5v29.4h21.7v-5.8H83.2V27h13.2v-5.6H83.2v-6.1h14.7V9.5H76.7z
		 M57,26.6h3.9c2.2,0,3.8,0.2,4.8,0.7c1,0.4,1.5,1.3,1.5,2.7c0,1.4-0.5,2.3-1.4,2.7c-0.9,0.5-2.4,0.7-4.2,0.7H57V26.6z M57,15h3.2
		c1.9,0,3.3,0.2,4.1,0.6c0.8,0.4,1.2,1.3,1.2,2.6c0,1.3-0.4,2.2-1.3,2.5c-0.9,0.4-2.2,0.6-4.1,0.6H57V15z M71.8,36.2
		c1.4-1.6,2.1-3.4,2.1-5.4c0-1.9-0.5-3.4-1.6-4.7c-1.1-1.2-2.5-2.1-4.4-2.5c0.5-0.2,0.9-0.4,1.1-0.5c0.2-0.1,0.5-0.3,1.1-0.7
		c1.5-1.1,2.2-2.8,2.2-5.1c0-1.9-0.7-3.6-2-5.1c-0.7-0.8-1.8-1.5-3.3-1.9c-1.4-0.5-3.2-0.7-5.2-0.7H50.4v29.4h12.9
		C67.4,38.9,70.2,38,71.8,36.2"/>
</g>
<path fill="#FFFFFF" d="M19.1,14.6l5.5,10.9L19,36.6H8L19.1,14.6z M32.5,9.5L25.8,23L19.1,9.5L4.3,38.9h13.5h16h13.5L32.5,9.5
	L32.5,9.5z"/>
</svg>
