<?xml version="1.0" encoding="utf-8"?>
<!-- Generator: Adobe Illustrator 17.1.0, SVG Export Plug-In . SVG Version: 6.00 Build 0)  -->
<!DOCTYPE svg PUBLIC "-//W3C//DTD SVG 1.1//EN" "http://www.w3.org/Graphics/SVG/1.1/DTD/svg11.dtd">
<svg version="1.1" xmlns="http://www.w3.org/2000/svg" xmlns:xlink="http://www.w3.org/1999/xlink" x="0px" y="0px"
	 viewBox="0 0 144.5 125.1" enable-background="new 0 0 144.5 125.1" xml:space="preserve">
<g id="Layer_1">
	<g>
		<polygon fill="#399FD3" points="0,125.1 72.3,0 144.5,125.1 		"/>
		<g>
			<defs>
				<rect id="SVGID_27_" x="77.7" y="100.1" width="22.9" height="6.7"/>
			</defs>
			<clipPath id="SVGID_2_">
				<use xlink:href="#SVGID_27_"  overflow="visible"/>
			</clipPath>
			<path clip-path="url(#SVGID_2_)" fill="#FFFFFF" d="M97.8,104.1h-1.7l0.8-1.9L97.8,104.1z M100.6,106.8l-2.9-6.7h-1.4l-2.9,6.7
				h1.6l0.6-1.4h2.8l0.6,1.4H100.6z M94.3,101.4v-1.3H89v1.3h1.9v5.4h1.5v-5.4H94.3z M83.7,100.1v6.7h4.9v-1.3h-3.4v-1.4h3v-1.3h-3
				v-1.4h3.3v-1.3H83.7z M79.2,104h0.9c0.5,0,0.9,0,1.1,0.1c0.2,0.1,0.3,0.3,0.3,0.6c0,0.3-0.1,0.5-0.3,0.6c-0.2,0.1-0.5,0.2-1,0.2
				h-1V104z M79.2,101.4h0.7c0.4,0,0.8,0,0.9,0.1c0.2,0.1,0.3,0.3,0.3,0.6c0,0.3-0.1,0.5-0.3,0.6c-0.2,0.1-0.5,0.1-0.9,0.1h-0.7
				V101.4z M82.6,106.2c0.3-0.4,0.5-0.8,0.5-1.2c0-0.4-0.1-0.8-0.4-1.1c-0.2-0.3-0.6-0.5-1-0.6c0.1-0.1,0.2-0.1,0.2-0.1
				c0,0,0.1-0.1,0.2-0.2c0.3-0.3,0.5-0.6,0.5-1.2c0-0.4-0.2-0.8-0.5-1.2c-0.2-0.2-0.4-0.3-0.7-0.4c-0.3-0.1-0.7-0.2-1.2-0.2h-2.6
				v6.7h2.9C81.5,106.8,82.2,106.6,82.6,106.2"/>
		</g>
		<path fill="#FFFFFF" d="M63.4,63.8l7.2,14.4l-7.4,14.7H48.8L63.4,63.8z M81.1,57l-8.9,17.8L63.4,57L43.9,95.9h17.8h21.1h17.8
			L81.1,57L81.1,57z"/>
	</g>
</g>
<g id="Layer_2">
</g>
<g id="Layer_3">
</g>
<g id="Layer_4">
</g>
</svg>
